<?xml version="1.0" encoding="utf-8"?>
<!-- Generator: Adobe Illustrator 25.4.1, SVG Export Plug-In . SVG Version: 6.00 Build 0)  -->
<svg version="1.1" id="Ebene_1" xmlns="http://www.w3.org/2000/svg" xmlns:xlink="http://www.w3.org/1999/xlink" x="0px" y="0px"
	 viewBox="0 0 240 100" style="enable-background:new 0 0 240 100;" xml:space="preserve">
<style type="text/css">
	.st0{fill:#CFD0D0;}
	.st0{fill:#ffffff;}
	.st1{fill:#FFFFFF;}
	.st2{fill:#E3000F;}
	.st3{}
</style>
<g>
	<g>
		<g>
			<path class="st0" d="M240,53.9c0-1.4-0.7-2.8-2-4.2c-1.8-1.8-3.9-3.5-6.3-4.9l0.1-0.1c0.6-0.6,1-1.4,1-2.4c0-1.1-0.4-2.2-1.1-3.2
				c-1.8-2.5-4.1-4.7-6.4-6.8c1-1.4,2.8-4.2,2.8-4.2c0.1-0.3,0.3-0.6,0.3-0.8c0-0.1,0-0.4-0.1-0.6c0.6-1,2.4-4.5,2.4-4.5
				c0.1-0.3,0.1-0.4,0.1-0.7c0-0.4-0.3-1-0.7-1.3c-0.6-0.4-1.5-0.3-2,0.3c0,0-2.7,3.1-3.4,3.9c-0.6,0-1,0.3-1.3,0.7
				c0,0-1.7,2.5-2.7,3.9c-4.1-2.7-8.5-4.6-13.3-5.9c-1.3-0.8-2.5-1.7-3.9-2.2c-0.1-0.6-0.3-1-0.4-1.4c0.1-0.3,0.4-0.6,0.7-0.8
				c0.6-0.6,1.4-1.4,2-2.9c0.3-1,0.6-2,0.6-2.8c0-1.7-0.7-3.2-1.7-4.1l-0.3-0.3c-0.4-0.3-0.8-0.4-1.3-0.3s-0.8,0.4-1,0.7l-0.1,0.3
				c-1,2-2.1,3.2-3.5,4.1c-0.1-0.1-0.4-0.1-0.6-0.3c0,0-0.1-0.1-0.4-0.1c-0.1-0.8-0.1-1.7-0.1-2.4c0-2.1,0.3-4.1,0.8-4.9
				c0.3-0.6,0.6-0.7,0.6-0.7s0.3,0.1,0.6,0.7c0,0,0,0,0,0.1c0.3,0.6,0.8,0.8,1.5,0.8c1,0,1.8-0.8,1.8-1.8c0-0.1,0-0.3-0.1-0.6V4.2
				c-0.1-0.6-0.8-2.1-2.4-2.8c-0.7-0.3-1.8-0.6-3.4,0.1c-0.4,0.1-1,0.6-1.4,1c-0.8-0.7-1.5-1.1-2.4-1.1c-1,0-1.8,0.6-2.4,1.4
				c-0.4,0.6-0.7,1.4-0.7,3.4c0,0.7,0,1.5,0.1,2.7c-0.4,0-0.8,0.1-1.1,0.4c-0.7,0.8-1.1,1.8-1.1,3.1c0,0.1,0,0.4,0,0.6
				c0.1,1,0.6,2,1.1,2.8c-0.6,0.4-1,1.1-1.3,2c-0.8,0.6-5,2.9-5,2.9c-1,0.6-1.5,1.7-1.7,2.9V24c0,0.3,0,0.6,0.1,1
				c-2.4,1-4.7,2.2-7,3.6c-1.3-1.8-2.1-3.8-2.8-5.9c-0.1-0.6-0.6-1-1.1-1c-1.3-0.1-2.5,0.1-3.5,0.7c-1,0.7-1.7,1.7-2,2.9
				c0,0.1,0,0.3,0,0.3c0,0.4,0.1,0.8,0.6,1.1c1.8,1.5,3.4,3.2,4.6,5c-2.4,2.1-4.6,4.3-6.4,6.8c-0.8,1.1-1.1,2.2-1.1,3.2
				s0.3,1.8,1,2.4c0,0,0.1,0,0.1,0.1c-2.4,1.5-4.5,3.2-6.3,4.9c-1.3,1.3-2,2.8-2,4.1c0,1,0.3,1.8,1,2.4c0,0,4.3,4.3,5.6,5.6
				c-1.3,2.4-2,4.6-2,6.7l0,0c0,1,0.8,1.8,1.8,1.8c0.7,0,1.4-0.4,1.7-1.1c0,0,0,0,0,0.1c0.3-0.7,0.6-1.1,1.4-1.8
				c0,0.7-0.1,1.4-0.1,2c0,2.4,0.6,4.3,1.7,6.3c0.3,0.7,1,1,1.7,1c1,0,1.8-0.8,1.8-1.8c0-3.4,2.2-6.8,4.3-9.4
				c1.1,6.3,2.9,11.7,5.3,16.2c0.8,1.7,1.8,3.1,2.8,4.5c-0.4,0.6-0.8,1.3-0.8,1.3c-0.1,0.1-0.1,0.4-0.3,0.6
				c-0.1,0.1-0.3,0.1-0.3,0.1c-0.7,0-2.2-1-4.3-3.8c-2.2-2.9-2.5-7.7-2.5-7.7c0-0.7-0.7-1.4-1.4-1.4c-0.7,0-1.4,0.6-1.5,1.3
				c-0.8,4.9,1.4,12.7,6.7,17.3c4.9,4.3,9.6,5.6,12.9,6c0.4,0,0.8-0.1,1.3-0.4c0.3-0.3,0.4-0.7,0.4-1.1v-0.1l-0.1-1.1
				c0-0.7-0.6-1.1-1.1-1.3c0,0-3.2-0.7-5-2.2c-0.7-0.6-1.1-0.8-1.1-1.4c0-0.3,0.1-0.7,0.6-1.3c0.3-0.1,0.4-0.3,0.6-0.6
				c3.2,3.1,7.1,5.2,11.5,6.3h0.1c0.3,0,0.4,0,0.7,0h0.1c4.1-1,7.7-2.9,10.8-5.7c0.1,0,0.3,0,0.3,0s0.3,0,0.6-0.1
				c0.6,1,3.1,4.5,3.1,4.5c0.3,0.4,0.7,0.7,1.3,0.7c0.7,0.8,3.4,3.9,3.4,3.9c0.6,0.6,1.4,0.7,2,0.3c0.4-0.3,0.7-0.7,0.7-1.3
				c0-0.3,0-0.4-0.1-0.7c0,0-1.8-3.5-2.4-4.5c0.1-0.1,0.1-0.4,0.1-0.6c0-0.3-0.1-0.6-0.3-0.8c0,0-1.3-1.8-2.1-2.9
				c1.4-1.5,3.5-5.6,4.2-16.9c0.7-2.2,1.3-4.6,1.7-7c2.1,2.5,4.3,6,4.3,9.4c0,0.1,0,0.1,0,0.3c0.1,0.8,0.8,1.5,1.8,1.5
				c0.7,0,1.3-0.4,1.5-1c1.3-2,1.8-3.9,1.8-6.4c0-0.6,0-1.3-0.1-2c0.8,0.7,1.1,1.3,1.4,1.8c0.3,0.7,1,1.1,1.7,1.1
				c1,0,1.8-0.8,1.8-1.8c0-2.1-0.7-4.5-2-6.7c1.3-1.3,5.6-5.6,5.6-5.6C239.7,55.6,240,54.8,240,53.9z"/>
		</g>
		<g>
			<path class="st1" d="M238.7,52.7c0-1.4-0.7-2.8-2-4.2c-1.8-1.8-3.9-3.5-6.3-4.9l0.1-0.1c0.6-0.6,1-1.4,1-2.4
				c0-1.1-0.4-2.2-1.1-3.2c-1.8-2.5-4.1-4.7-6.4-6.8c1-1.4,2.8-4.2,2.8-4.2c0.1-0.3,0.3-0.6,0.3-0.8c0-0.1,0-0.4-0.1-0.6
				c0.6-1,2.4-4.5,2.4-4.5c0.1-0.3,0.1-0.4,0.1-0.7c0-0.4-0.3-1-0.7-1.3c-0.6-0.4-1.4-0.3-2,0.3c0,0-2.7,3.1-3.4,3.9
				c-0.6,0-1,0.3-1.3,0.7c0,0-1.7,2.5-2.7,3.9c-4.1-2.7-8.5-4.6-13.3-5.9c-1.3-0.8-2.5-1.7-3.9-2.1c-0.1-0.6-0.3-1-0.4-1.4
				c0.1-0.3,0.4-0.6,0.7-0.8c0.6-0.6,1.4-1.4,2-2.9c0.4-1,0.6-2,0.6-2.8c0-1.7-0.7-3.2-1.7-4.1l-0.3-0.3c-0.3-0.3-0.8-0.4-1.3-0.3
				c-0.4,0.1-0.8,0.4-1,0.7l-0.1,0.3c-1,2-2.1,3.2-3.5,4.1c-0.1-0.1-0.4-0.1-0.6-0.3c0,0-0.1-0.1-0.4-0.1c-0.1-0.8-0.1-1.7-0.1-2.4
				c0-2.1,0.3-4.1,0.8-4.9c0.3-0.6,0.6-0.7,0.6-0.7s0.3,0.1,0.6,0.7c0,0,0,0,0,0.1c0.3,0.6,0.8,0.8,1.5,0.8c1,0,1.8-0.8,1.8-1.8
				c0-0.1,0-0.3-0.1-0.6V3.1c-0.1-0.6-0.8-2.1-2.5-2.8c-0.7-0.3-1.8-0.6-3.4,0.1c-0.4,0.1-1,0.6-1.4,1c-0.8-0.7-1.5-1.1-2.4-1.1
				c-1,0-1.8,0.6-2.4,1.4c-0.4,0.6-0.7,1.4-0.7,3.4c0,0.7,0,1.5,0.1,2.7c-0.4,0-0.8,0.1-1.1,0.4c-0.7,0.8-1.1,1.8-1.1,3.1
				c0,0.1,0,0.4,0,0.6c0.1,1,0.6,2,1.1,2.8c-0.6,0.4-1,1.1-1.3,2c-0.8,0.6-5,2.9-5,2.9c-1,0.6-1.5,1.7-1.7,2.9v0.6
				c0,0.3,0,0.6,0.1,1c-2.4,1-4.7,2.2-7,3.6c-1.3-1.8-2.1-3.8-2.8-5.9c-0.1-0.6-0.6-1-1.1-1c-1.3-0.1-2.5,0.1-3.5,0.7
				c-1,0.7-1.7,1.7-2,2.9c0,0.1,0,0.3,0,0.3c0,0.4,0.1,0.8,0.6,1.1c1.8,1.4,3.4,3.2,4.6,5c-2.4,2.1-4.6,4.3-6.4,6.8
				c-0.8,1.1-1.1,2.2-1.1,3.2s0.3,1.8,1,2.4c0,0,0.1,0,0.1,0.1c-2.4,1.5-4.5,3.2-6.3,4.9c-1.3,1.3-2,2.8-2,4.1c0,1,0.3,1.8,1,2.4
				c0,0,4.3,4.3,5.6,5.6c-1.3,2.4-2,4.6-2,6.7l0,0c0,1,0.8,1.8,1.8,1.8c0.7,0,1.4-0.4,1.7-1.1c0,0,0,0,0,0.1
				c0.3-0.7,0.6-1.1,1.4-1.8c0,0.7-0.1,1.4-0.1,2c0,2.4,0.6,4.3,1.7,6.3c0.3,0.7,1,1,1.7,1c1,0,1.8-0.8,1.8-1.8
				c0-3.4,2.2-6.8,4.3-9.4c1.1,6.3,2.9,11.7,5.3,16.2c0.8,1.7,1.8,3.1,2.8,4.5c-0.4,0.6-0.8,1.3-0.8,1.3c-0.1,0.1-0.1,0.4-0.3,0.6
				c-0.1,0.1-0.3,0.1-0.3,0.1c-0.7,0-2.2-1-4.3-3.8c-2.2-2.9-2.5-7.7-2.5-7.7c0-0.7-0.7-1.4-1.4-1.4s-1.4,0.6-1.5,1.3
				c-0.8,4.9,1.5,12.7,6.7,17.3c4.9,4.3,9.6,5.6,12.9,6c0.4,0,0.8-0.1,1.3-0.4c0.3-0.3,0.4-0.7,0.4-1.1v-0.1l-0.1-1.1
				c0-0.7-0.6-1.1-1.1-1.3c0,0-3.2-0.7-5-2.2c-0.7-0.6-1.1-0.8-1.1-1.4c0-0.3,0.1-0.7,0.6-1.3c0.3-0.1,0.4-0.3,0.6-0.6
				c3.2,3.1,7.1,5.2,11.5,6.3h0.1c0.3,0,0.4,0,0.7,0h0.1c4.1-1,7.7-2.9,10.8-5.7c0.1,0,0.3,0,0.3,0s0.3,0,0.6-0.1
				c0.6,1,3.1,4.5,3.1,4.5c0.3,0.4,0.7,0.7,1.3,0.7c0.7,0.8,3.4,3.9,3.4,3.9c0.6,0.6,1.4,0.7,2,0.3c0.4-0.3,0.7-0.7,0.7-1.3
				c0-0.3,0-0.4-0.1-0.7c0,0-1.8-3.5-2.4-4.5c0.1-0.1,0.1-0.4,0.1-0.6c0-0.3-0.1-0.6-0.3-0.8c0,0-1.3-1.8-2.1-2.9
				c1.4-1.5,3.5-5.6,4.2-16.9c0.7-2.2,1.3-4.6,1.7-7c2.1,2.5,4.3,6,4.3,9.4c0,0.1,0,0.1,0,0.3c0.1,0.8,0.8,1.5,1.8,1.5
				c0.7,0,1.3-0.4,1.5-1c1.3-2,1.8-3.9,1.8-6.4c0-0.6,0-1.3-0.1-2c0.8,0.7,1.1,1.3,1.4,1.8c0.3,0.7,1,1.1,1.7,1.1
				c1,0,1.8-0.8,1.8-1.8c0-2.1-0.7-4.5-2-6.7c1.3-1.3,5.6-5.6,5.6-5.6C238.5,54.5,238.7,53.7,238.7,52.7z"/>
		</g>
		<path class="st2" d="M217.8,48.4c-0.8-0.4-1.7-0.7-2.5-1.1c0.6,3.8,1.3,8.7,1.7,12.6C217.4,56.2,217.6,52.4,217.8,48.4z"/>
		<path class="st2" d="M209.7,45.4c-0.8-0.1-1.5-0.4-2.4-0.6c-2.7,2.9-6.6,4.9-10.9,4.9c-4.3,0-8.2-1.8-10.9-4.9
			c-2.9,0.7-5.9,1.5-8.7,2.7v0.1h7.8l-7.8,1c0,0.1,0,0.1-0.1,0.3l13.1,9.2l-13.7-8.4c-0.1,0.1-0.1,0.1-0.3,0.1l2.8,9.5l-3.8-9.1
			h-0.1c1.1,23.5,8.5,38.1,21.4,41.6c6-1.7,10.9-5.9,14.5-12.3c1.1-4.2,1.4-9.2,1.4-14.8C212.3,55.8,211.2,48.5,209.7,45.4z
			 M209.8,71.3c-2.7,0.4-5.7,0.7-8.9,0.8V81c-1.4,0-2.9,0.1-4.5,0.1c-1.5,0-3.1,0-4.5-0.1v-8.9c-3.2-0.1-6.3-0.4-8.9-0.8v-8.9
			c2.7,0.4,5.7,0.7,8.9,0.8v-8.9c1.4,0,2.9,0.1,4.5,0.1c1.5,0,3.1,0,4.5-0.1v8.9c3.2-0.1,6.3-0.4,8.9-0.8V71.3z"/>
		<g>
			<path d="M222.7,36.6c-1.5,1.4,0.7,2.9,0,3.6c-0.3,0.3-0.7,0-1-0.3c-0.4-0.4-0.7-1-0.7-1.4l-1,0.7c0.3,0.4,0.6,1,1,1.4
				c0.8,1,2,1.5,3.1,0.6c1.5-1.4-0.7-2.9,0-3.5c0.4-0.3,0.8,0.1,1.1,0.4s0.6,0.7,0.7,1.1l1-0.7c-0.1-0.4-0.4-0.8-0.8-1.3
				C224.8,36.5,223.7,35.8,222.7,36.6z"/>
			<path d="M235.8,49.6c-2.1-2.1-4.6-4.1-7.5-5.7l1.5-1.5c0.8-0.8,0.7-2.4-0.4-3.8c-2.1-2.8-4.5-5.3-7.3-7.5l3.5-5.3l-0.3-0.7
				l2.7-5.2l-3.8,4.5h-0.7l-3.5,5.2c-4.3-3.1-9.2-5.3-14.4-6.4c-1.3-1.1-2.8-2-4.5-2.5c-0.3-0.8-0.6-1.8-0.8-2.7
				c0.3-0.7,0.8-1.3,1.3-1.7c0.6-0.6,1.3-1.3,1.7-2.4c0.3-0.8,0.4-1.5,0.4-2.2c0-1.3-0.4-2.2-1.1-2.8l-0.3-0.3l-0.1,0.3
				c-1.3,2.2-2.5,3.8-4.1,4.7c-0.6,0.3-1,0.1-1.8-0.3c-0.4-0.1-0.7-0.4-1.1-0.6c-0.4-3.1-0.3-7.1,0.7-8.9c1.1-2,2.8-1.8,3.8,0l0,0
				c0,0.1,0.1,0.1,0.3,0.1c0.1,0,0.3-0.1,0.3-0.3l0,0l0,0l0,0l0,0c-0.1-0.4-1.1-2.9-3.8-1.8c-0.7,0.3-1.3,1-1.8,1.8
				c-1.5-2.1-2.8-2.4-3.6-1.3c-0.8,1.3-0.6,4.5,0.6,9.5c-1.4-1-2.1-2.2-2.4-2.9c-1.3,1.3-1,4.2,1.3,5.6c-0.3,0.3-0.6,0.4-0.6,0.4
				c-1,0.6-1.5,1.1-1.7,2.4c-0.3,0.1-5.6,3.4-5.6,3.4c-0.6,0.3-0.8,1-1,1.8c0,0.1,0,0.3,0,0.4c0,0.6,0.1,1.3,0.4,1.5v0.3l0,0
				c-3.2,1.3-6.4,2.9-9.2,4.9l-0.6-0.8c-1.4-2.1-2.5-4.5-3.2-6.7c-0.8-0.1-1.7,0-2.4,0.6c-0.7,0.6-1.3,1.3-1.4,2.1
				c1.8,1.5,3.6,3.4,5,5.6l0.6,1c-2.7,2.1-5.2,4.6-7.3,7.5c-1,1.4-1.3,2.9-0.4,3.8l1.5,1.5c-2.9,1.7-5.4,3.6-7.5,5.7
				c-1.5,1.5-2,3.5-1,4.5l6.3,6.3c-1.5,2.5-2.2,4.9-2.2,7c0,0.1,0.1,0.3,0.3,0.3c0.1,0,0.3-0.1,0.3-0.3c0.7-1.4,1.3-2.4,4.6-4.2
				c-0.3,2-0.6,3.6-0.6,5c0,2.4,0.6,3.9,1.5,5.7c0,0.1,0.1,0.1,0.3,0.1c0.1,0,0.3-0.1,0.3-0.3c0-5,4.2-9.9,6.7-12.4c0,0,0,0,0.1-0.1
				c1.1,7.4,2.9,13.7,5.6,18.7c1,2,2.1,3.6,3.2,5.2l-1.4,2.1l0.1,0.3c-1.8,2.5-4.7,0.3-7.4-3.2c-2.5-3.4-2.8-8.4-2.8-8.4
				c-0.7,4.2,1.4,11.6,6.1,15.9c3.9,3.5,8.2,5.2,12,5.6l-0.1-1.1c0,0-3.5-0.8-5.6-2.5c-2-1.7-2.1-2.7-0.6-5h0.3l1-1.5
				c3.4,3.6,7.3,6,12,7.1h0.1h0.1c4.1-1,7.5-2.9,10.6-5.9c0.3,0.1,0.6,0.1,0.8,0.1c0.3,0,0.4,0,0.7-0.1c0.3,0,0.4,0.1,0.7,0.1h0.1
				l3.5,5h0.7l3.8,4.5l-2.7-5.2l0.3-0.7l-2.8-4.1c3.2-2,4.3-10.3,4.7-16.9c1-3.1,1.7-6.4,2.1-10.1l0.1,0.1c2.5,2.5,6.7,7.4,6.7,12.4
				c0,0.1,0.1,0.3,0.3,0.3c0.1,0,0.3-0.1,0.3-0.1c1.1-1.7,1.5-3.4,1.5-5.7c0-1.4-0.1-2.9-0.6-5c3.4,2,3.9,2.8,4.6,4.2
				c0,0.1,0.1,0.1,0.3,0.1c0.1,0,0.3-0.1,0.3-0.3c0-2.2-0.8-4.6-2.2-7l6.3-6.3C237.8,53.1,237.3,51.1,235.8,49.6z M207,24.2
				c8.7,2.4,16.3,7.5,21.8,14.8c0.8,1.1,1,2.4,0.4,2.9l0,0c0-0.1,0-0.3,0-0.3c0-0.7-0.4-1.4-0.7-2l0,0c0,0,0,0-0.1,0c0,0,0,0,0,0.1
				c0.4,0.7,0.8,2.1,0.3,2.8l-0.1,0.1c0-0.1,0-0.3,0-0.3c0-0.7-0.4-1.4-0.7-2l0,0c0,0,0,0-0.1,0c0,0,0,0,0,0.1
				c0.4,0.7,0.8,2.1,0.3,2.8l-0.1,0.1c0-0.1,0-0.3,0-0.3c0-0.7-0.4-1.4-0.7-2l0,0c0,0,0,0-0.1,0c0,0,0,0,0,0.1
				c0.4,0.7,0.8,2.1,0.3,2.8l-0.1,0.1c0-0.1,0-0.3,0-0.3c0-0.7-0.4-1.4-0.7-2l0,0c0,0,0,0-0.1,0c0,0,0,0,0,0.1
				c0.4,0.7,0.8,2.1,0.3,2.8l-0.1,0.1c0-0.1,0-0.3,0-0.3c0-0.7-0.4-1.4-0.7-2l0,0c0,0,0,0-0.1,0c0,0,0,0,0,0.1
				c0.4,0.7,0.8,2.1,0.3,2.8l-0.1,0.1c0-0.1,0-0.3,0-0.3c0-0.7-0.4-1.4-0.7-2l0,0c0,0,0,0-0.1,0c0,0,0,0,0,0.1
				c0.4,0.7,0.8,2.1,0.3,2.8l-0.1,0.1c0-0.1,0-0.3,0-0.3c0-0.7-0.4-1.4-0.7-2l0,0c0,0,0,0-0.1,0c0,0,0,0,0,0.1
				c0.4,0.7,0.8,2.1,0.3,2.8l-0.1,0.1c0-0.1,0-0.3,0-0.3c0-0.7-0.4-1.4-0.7-2l0,0c0,0,0,0-0.1,0c0,0,0,0,0,0.1
				c0.4,0.7,0.8,2.1,0.3,2.8l0,0c0-0.7-0.3-1.4-0.7-2.1c-2.9-4.5-7-8.1-11.6-10.5h-0.1c0-0.6,0-1.3-0.1-1.8c0.4,0.4,0.8,0.8,1.4,1.1
				c0.7,0.4,1.1,0.4,1.5,0.6l0.4-1.1c-0.4,0-1-0.1-1.4-0.4c-1-0.6-1.4-1.5-0.8-2.5s1.5-1.3,2.4-0.8c0.4,0.3,0.8,0.6,1.1,1l0.7-1
				c-0.4-0.4-0.8-0.8-1.4-1c-1.7-0.8-3.4-0.7-4.2,1.1c-0.1,0.3-0.3,0.6-0.3,0.7c-0.7-2.7-2.2-4.9-4.1-6.7L207,24.2z M218.8,45.7
				l1.5,0.8c1,0.7,2,1.3,2.9,1.1c0,0.1,0,0.1,0,0.3c-1,0.4-2-0.1-2.9-0.7v-0.1V47l-0.1-0.1c-1.7-0.8-3.4-1.5-5-2.1l3.6-3.6
				c1.3,1.3,2.4,2.7,3.5,4.1h-0.1c-0.6-0.3-1.1-0.7-1.8-0.8l0,0l0,0h-0.1v0.1l1.5,0.8l0.7,0.4c0,0.1,0.1,0.1,0.1,0.3
				c0.1,0.3,0.3,0.6,0.4,0.7c-0.6-0.1-1.1-0.4-1.7-0.8c-0.6-0.3-1.1-0.7-1.8-0.8l0,0l0,0h-0.1v0.1l1.5,0.8c0.7,0.4,1.4,0.8,2.1,1.1
				c0,0.1,0,0.3,0.1,0.4c-0.8,0-1.7-0.4-2.5-1C220,46.1,219.5,45.8,218.8,45.7L218.8,45.7C218.8,45.6,218.8,45.6,218.8,45.7
				C218.8,45.6,218.6,45.6,218.8,45.7C218.6,45.6,218.6,45.7,218.8,45.7z M222.8,48.4C222.8,48.4,222.8,48.5,222.8,48.4
				c-0.6,0.6-1.5,0.6-2.5-0.1c0,0-0.1-0.1-0.3-0.1c0-0.1,0-0.4,0-0.6C221,48.2,222,48.6,222.8,48.4z M227.8,55.9
				c0.7,0.6,1.4,1.3,2.1,1.7c0.1,0.3,0.3,0.6,0.3,0.8c-1-0.1-2-1-3.1-1.8H227v0.1c1,0.8,2.1,2,3.2,2.1c0,0.1,0,0.3,0,0.4
				c-1.1,0.1-2.2-0.7-3.9-2h-0.1v0.1c1.1,1.1,2.5,2.2,3.9,2.1v0.1c-1.4,0.7-2.7-0.3-4.5-1.7h-0.1v0.1c1.3,1.1,2.7,2.5,4.2,2.1
				c-1.4,1.1-3.2-0.3-3.9-1c-1.1-1-2.4-1.8-3.6-2.7c-0.8-0.6-1.7-0.7-2.5-0.7l3.6-3.6c2.2,1.3,4.2,2.7,5.6,4.2
				c0.1,0.1,0.4,0.4,0.6,0.6C229.1,56.7,228.5,56.3,227.8,55.9C227.8,55.8,227.8,55.8,227.8,55.9C227.7,55.8,227.7,55.9,227.8,55.9z
				 M219.7,55.1c0.1-1.5,0.3-2.9,0.3-4.6c1,0.4,2,1,2.8,1.4L219.7,55.1z M216,61.9c-0.1,0-0.3-0.1-0.3-0.1c0-0.3,0-0.7,0-1
				c0,0,0,0,0.1,0c0.3,0.1,0.6,0.3,0.6,0.4l0,0c0,0.3,0,0.6,0,0.8C216.3,62,216.1,61.9,216,61.9z M216.4,62.9L216.4,62.9
				c0,0.3,0,0.6,0,0.8c-0.1,0-0.3-0.1-0.4-0.1s-0.3-0.1-0.3-0.1c0-0.3,0-0.6,0-1c0,0,0,0,0.1,0C216,62.6,216.4,62.7,216.4,62.9z
				 M215.8,60.2c-0.1,0-0.3-0.1-0.3-0.1c0-0.3,0-0.7,0-1c0,0,0,0,0.1,0c0.3,0.1,0.6,0.1,0.6,0.3l0,0c0,0.3,0,0.6,0,0.8
				C216.1,60.4,216,60.4,215.8,60.2z M215.8,58.7c-0.1,0-0.3-0.1-0.3-0.1c0-0.3,0-0.7,0-1c0,0,0,0,0.1,0c0.3,0.1,0.6,0.1,0.7,0.3
				l0,0c0,0.3,0,0.6,0,0.8C216.1,58.7,216,58.7,215.8,58.7z M215.7,57c-0.1,0-0.3,0-0.3-0.1c0-0.3,0-0.7-0.1-1c0,0,0,0,0.1,0
				c0.3,0.1,0.6,0.1,0.7,0.3l0,0c0,0.3,0,0.6,0,0.8C216,57.2,215.8,57,215.7,57z M215.6,55.3c-0.1,0-0.3,0-0.3-0.1
				c0-0.3,0-0.7-0.1-1c0,0,0,0,0.1,0c0.3,0,0.7,0.1,0.7,0.3l0,0c0,0.3,0,0.6,0.1,0.8C215.8,55.5,215.7,55.5,215.6,55.3z M215.4,53.8
				c-0.1,0-0.1,0-0.3-0.1c0-0.3-0.1-0.7-0.1-1c0,0,0,0,0.1,0c0.3,0,0.7,0.1,0.7,0.3l0,0c0,0.3,0.1,0.6,0.1,0.8
				C215.7,53.8,215.6,53.8,215.4,53.8z M211.4,83c-0.3-0.1-0.6-0.4-0.6-0.6l0,0c0.1-0.3,0.1-0.6,0.3-0.8c0.1,0.1,0.3,0.1,0.4,0.3
				c0.3,0.1,0.6,0.4,0.6,0.4c-0.1,0.3-0.1,0.6-0.3,0.8C211.6,83.1,211.5,83.1,211.4,83z M211.5,84c-0.1,0.3-0.3,0.6-0.3,0.8
				c-0.1-0.1-0.3-0.1-0.3-0.3c-0.3-0.1-0.4-0.4-0.4-0.6c0.1-0.3,0.1-0.6,0.3-0.8c0.1,0.1,0.3,0.1,0.3,0.3
				C211.2,83.7,211.5,83.8,211.5,84z M211.8,81.5c-0.3-0.1-0.6-0.4-0.6-0.6c0-0.3,0.1-0.6,0.1-0.8c0.1,0.1,0.3,0.1,0.4,0.3
				c0.3,0.1,0.6,0.3,0.6,0.4c0,0.3-0.1,0.6-0.1,0.8C212.1,81.6,211.9,81.5,211.8,81.5z M195.3,49h-1.4l3.8-6.6h1.4L195.3,49z
				 M198.9,49h-1.4l-0.7-1.3l0.7-1.3L198.9,49z M167.2,57.9C167.1,57.9,167.1,57.9,167.2,57.9c-2,1.5-3.2,2.4-4.6,1.7v-0.1
				c1.4,0.1,2.8-1.1,3.9-2.1c0,0,0,0,0-0.1c0,0,0,0-0.1,0c-1.5,1.3-2.7,2.1-3.9,2c0-0.1,0-0.3,0-0.4c1.1-0.3,2.2-1.3,3.2-2.1
				c0,0,0,0,0-0.1c0,0,0,0-0.1,0c-1.1,1-2.1,1.7-3.1,1.8c0.1-0.3,0.1-0.6,0.3-0.8c0.7-0.4,1.4-1.1,2.1-1.7c0,0,0,0,0-0.1
				c0,0,0,0-0.1,0c-0.7,0.6-1.1,1-1.7,1.3c0.1-0.1,0.3-0.4,0.6-0.6c1.4-1.5,3.4-2.9,5.6-4.2l3.6,3.6c-0.8,0-1.7,0.1-2.5,0.7
				c-1.3,0.8-2.5,1.7-3.6,2.7c-0.7,0.7-2.5,2.1-3.9,1C164.4,60.5,166,59.1,167.2,57.9C167.2,58,167.2,58,167.2,57.9z M170,52
				c0.8-0.6,1.8-1,2.9-1.4c0.1,1.5,0.1,3.1,0.3,4.6L170,52z M172.9,46.8l-0.1,0.1v0.1v0.1c-1.1,0.6-2,1-2.9,0.7c0-0.1,0-0.1,0-0.3
				c1,0,1.8-0.6,2.9-1.1l1.5-0.8c0,0,0,0,0-0.1c0,0,0,0-0.1,0l0,0l0,0c-0.7,0.3-1.3,0.6-1.8,0.8c-1,0.6-1.8,1-2.5,1
				c0-0.1,0-0.3,0.1-0.4c0.7-0.1,1.4-0.6,2.1-1.1l1.5-0.8c0,0,0,0,0-0.1c0,0,0,0-0.1,0l0,0l0,0c-0.7,0.3-1.3,0.6-1.8,0.8
				c-0.6,0.3-1.1,0.6-1.7,0.8c0.1-0.3,0.3-0.6,0.4-0.7c0-0.1,0.1-0.1,0.1-0.3l0.7-0.4l1.5-0.8c0,0,0,0,0-0.1c0,0,0,0-0.1,0l0,0l0,0
				c-0.7,0.3-1.3,0.6-1.8,0.8h-0.1c1-1.5,2.2-2.8,3.5-4.1l3.6,3.8C176.3,45.3,174.5,46,172.9,46.8z M172.8,48.2l-0.3,0.1
				c-1,0.6-2,0.7-2.5,0.1c0,0,0,0,0-0.1c1,0.3,1.8-0.1,2.8-0.8C172.8,47.8,172.8,47.9,172.8,48.2z M174.6,40.5
				c0.4-0.4,1-0.8,1.4-1.3l3.4,4.9c-0.3,0.1-0.6,0.1-0.8,0.3L174.6,40.5z M178.1,37.7c1.1-0.7,2.1-1.4,3.4-2.1l0,0
				c0.1,2.7,1,5.2,2.2,7.4c-0.6,0.1-1.1,0.3-1.8,0.4L178.1,37.7z M190.6,28.5c0,0.4,0,1-0.1,1.7c-0.1,0.3-0.3,0.6-0.6,0.7l-0.1,0.1
				c0-0.1-0.1-0.3-0.1-0.4l-0.1-0.3l-0.3,0.1c-0.3,0.1-0.4,0.3-0.7,0.6c-0.1,0.1-0.3,0.1-0.4,0.3c0-0.3,0-0.7,0-1c0,0,0-0.1,0.1-0.1
				c0.7-0.3,1.4-0.8,1.8-1.5C190.1,28.7,190.3,28.7,190.6,28.5z M190.6,27.8L190.6,27.8L190.6,27.8L190.6,27.8L190.6,27.8z
				 M188,40.2c0.4,0.4,0.7,1,1,1.5c-0.6,0-1,0.1-1.5,0.3c-0.3-0.1-0.6-0.4-0.7-0.6c-0.7-0.7-1-1.5-1.1-2.5
				C186.5,39.3,187.3,39.6,188,40.2z M185.2,37.7c-0.1-0.3-0.3-0.6-0.4-0.8c-0.1-0.6-0.3-1.1-0.1-1.8c0-0.3,0.1-0.7,0.3-1
				c0.8,0.6,1.4,1.3,1.7,2.1c0.1,0.6,0.3,1.1,0.1,1.8l0,0C186.2,37.9,185.8,37.7,185.2,37.7z M191.1,43.3c0.8,0.3,1.5,1,2.1,1.8
				c-0.8,0.3-1.8,0.3-2.8,0c-0.8-0.3-1.5-1-2.1-1.8C189.2,43,190.1,43,191.1,43.3z M191,42.2c-0.3-0.1-0.4-0.1-0.7-0.1
				c-0.4-0.6-0.7-1.4-0.7-2.1c1,0.1,1.8,0.6,2.4,1.3c0.6,0.7,1,1.5,1,2.5C192.4,42.9,191.7,42.5,191,42.2z M189.2,38.4h-0.3v0.3
				c0,0.3,0,0.6,0,0.8v0.1c-0.1-0.1-0.3-0.4-0.4-0.6c-0.3-0.3-0.4-0.4-0.7-0.6c-0.1-0.4-0.1-0.7-0.1-1.1v-0.1c0-0.1,0-0.3,0-0.4
				c0-0.4,0.3-0.7,0.4-1c0.7,0.6,1.3,1.4,1.5,2.2c0,0.1,0,0.1,0,0.3C189.4,38.4,189.3,38.4,189.2,38.4z M189,28.2
				c-0.3,0.6-0.7,1-1.3,1.3c-0.1-0.4-0.4-1-0.7-1.4c0.1-0.3,0.3-0.6,0.4-0.8c0,0,0,0,0.1-0.1c0.7,0.1,1.3,0.3,1.8,0.4
				C189.3,27.8,189.2,28,189,28.2z M187.8,32.6c0.1-0.3,0.4-0.4,0.7-0.7c0.3,0.7,0.4,1.5,0.3,2.4c0,0.1,0,0.3-0.1,0.4
				c0,0.1,0,0.1-0.1,0.3c-0.1-0.1-0.3-0.1-0.3-0.3l-0.3-0.1l-0.1,0.3c-0.1,0.3-0.3,0.6-0.4,0.7c0,0.1,0,0.1-0.1,0.3
				c0-0.1,0-0.1,0-0.3c-0.1-0.3-0.3-0.7-0.4-1c0-0.1,0-0.3,0.1-0.3l0,0C187.3,33.5,187.6,33,187.8,32.6z M186.9,32L186.9,32
				c0,0.6-0.3,1.3-0.6,1.7c-0.4-0.4-0.7-0.7-1.3-1c0-0.3,0-0.7,0-1l0,0c0.1-1,0.6-1.8,1.3-2.5C186.8,30.1,187.1,31,186.9,32z
				 M184.8,30.3c-0.1-0.3-0.4-0.6-0.6-0.7c0-0.3,0-0.6,0-1l0,0c0-0.8,0.3-1.5,0.8-2.1c0.1,0,0.4,0,0.6,0.1c0.3,0.6,0.6,1.3,0.4,2.1
				C185.4,29.2,185.1,29.8,184.8,30.3z M184.4,32.3c0,0.3,0,0.6,0.1,0.8c-0.1,0.1-0.1,0.4-0.1,0.6c-0.1,0.3-0.3,0.6-0.3,0.8
				c-0.3-0.3-0.6-0.4-1-0.6c-0.1-0.3-0.3-0.6-0.4-0.8c-0.1-0.4-0.1-1-0.1-1.4c0-0.4,0.1-1,0.4-1.4C183.6,30.8,184.1,31.4,184.4,32.3
				z M184,36.1c0,0.3,0.1,0.7,0.3,1c0.1,0.4,0.4,0.8,0.7,1.3c0,0.1,0,0.3,0,0.4c-0.4-0.1-1-0.3-1.4-0.4c-0.3-0.1-0.4-0.4-0.6-0.7
				c-0.6-0.8-0.8-1.7-0.7-2.7l0,0C182.9,35.1,183.4,35.5,184,36.1z M182.9,39.6c0.7,0,1.5,0.1,2.1,0.6c0.3,0.7,0.6,1.4,1.1,2
				l0.1,0.1c-0.4,0-0.8,0-1.1,0.1c-0.3-0.1-0.6-0.3-0.8-0.4C183.7,41.4,183.1,40.5,182.9,39.6z M187.8,43.6c0.4,0.7,0.8,1.1,1.4,1.5
				c-0.3,0.1-0.6,0.3-0.8,0.4c-0.3,0-0.6-0.1-0.8-0.1c-0.8-0.3-1.7-0.8-2.2-1.7C185.9,43.5,186.9,43.3,187.8,43.6z M191.1,46
				c0.3,0,0.7,0.1,1,0c0.7,0.1,1.3,0.4,1.7,0.8c-0.7,0.6-1.5,1-2.5,1c-1,0-1.8-0.3-2.5-0.8C189.3,46.3,190.1,46,191.1,46z
				 M193.8,42.5h1.4l1,1.7l-0.7,1.3L193.8,42.5z M200.7,46c0.3,0,0.7,0,1,0c0.8,0,1.7,0.4,2.4,1c-0.7,0.6-1.7,1-2.5,0.8
				c-1,0-1.8-0.4-2.5-1C199.5,46.4,200.2,46.1,200.7,46z M214.6,61.9c-0.1,0-0.3-0.1-0.3-0.1c0-0.3,0-0.7,0-1c0,0,0,0,0.1,0
				c0.3,0.1,0.6,0.3,0.6,0.4l0,0c0,0.3,0,0.6,0,0.8C214.9,62,214.7,61.9,214.6,61.9z M215,62.9L215,62.9c0,0.3,0,0.6,0,0.8
				c-0.1,0-0.3-0.1-0.4-0.1c-0.1,0-0.3-0.1-0.3-0.1c0-0.3,0-0.6,0-1c0,0,0,0,0.1,0C214.7,62.6,215,62.7,215,62.9z M214.6,60.2
				c-0.1,0-0.3-0.1-0.3-0.1c0-0.3,0-0.7,0-1c0,0,0,0,0.1,0c0.3,0.1,0.6,0.1,0.6,0.3l0,0c0,0.3,0,0.6,0,0.8
				C214.9,60.4,214.7,60.4,214.6,60.2z M214.4,58.7c-0.1,0-0.3-0.1-0.3-0.1c0-0.3,0-0.7,0-1c0,0,0,0,0.1,0c0.3,0.1,0.6,0.1,0.7,0.3
				l0,0c0,0.3,0,0.6,0,0.8C214.7,58.7,214.6,58.7,214.4,58.7z M214.4,57c-0.1,0-0.3,0-0.3-0.1c0-0.3,0-0.7-0.1-1c0,0,0,0,0.1,0
				c0.3,0.1,0.6,0.1,0.7,0.3l0,0c0,0.3,0,0.6,0,0.8C214.7,57.2,214.6,57,214.4,57z M214.3,55.3c-0.1,0-0.3,0-0.3-0.1
				c0-0.3,0-0.7-0.1-1c0,0,0,0,0.1,0c0.3,0,0.7,0.1,0.7,0.3l0,0c0,0.3,0,0.6,0.1,0.8C214.6,55.5,214.4,55.5,214.3,55.3z M214,53.8
				c-0.1,0-0.1,0-0.3-0.1c0-0.3-0.1-0.7-0.1-1c0,0,0,0,0.1,0c0.3,0,0.7,0.1,0.7,0.3l0,0c0,0.3,0.1,0.6,0.1,0.8
				C214.3,53.8,214.2,53.8,214,53.8z M213.3,61.9c-0.3-0.1-0.6-0.3-0.6-0.4l0,0c0-0.3,0-0.6,0-0.8c0.1,0,0.3,0.1,0.4,0.1
				c0.3,0.1,0.6,0.3,0.6,0.4l0,0c0,0.3,0,0.6,0,0.8C213.6,62,213.5,61.9,213.3,61.9z M213.7,62.9L213.7,62.9c0,0.3,0,0.6,0,0.8
				c-0.1,0-0.3-0.1-0.4-0.1c-0.3-0.1-0.6-0.3-0.6-0.4c0-0.3,0-0.6,0-0.8c0.1,0,0.3,0.1,0.4,0.1C213.3,62.6,213.7,62.7,213.7,62.9z
				 M213.2,60.2c-0.3-0.1-0.6-0.3-0.6-0.4l0,0c0-0.3,0-0.6,0-0.8c0.1,0,0.3,0.1,0.4,0.1c0.3,0.1,0.6,0.1,0.6,0.3l0,0
				c0,0.3,0,0.6,0,0.8C213.5,60.4,213.3,60.4,213.2,60.2z M213.2,58.7c-0.3-0.1-0.7-0.3-0.7-0.4l0,0c0-0.3,0-0.6,0-0.8
				c0.1,0,0.3,0.1,0.4,0.1c0.3,0.1,0.6,0.1,0.7,0.3l0,0c0,0.3,0,0.6,0,0.8C213.5,58.7,213.3,58.7,213.2,58.7z M213,57
				c-0.3-0.1-0.7-0.1-0.7-0.3l0,0c0-0.3,0-0.6-0.1-0.8c0.1,0,0.3,0.1,0.4,0.1c0.3,0.1,0.6,0.1,0.7,0.3l0,0c0,0.3,0,0.6,0,0.8
				C213.3,57.2,213.2,57,213,57z M212.3,73.6c0.1,0.1,0.3,0.1,0.4,0.1c0.3,0.1,0.6,0.3,0.6,0.4l0,0c0,0.3,0,0.6-0.1,0.8
				c-0.1-0.1-0.3-0.1-0.4-0.3c-0.3-0.1-0.6-0.3-0.6-0.4C212.3,74.2,212.3,73.9,212.3,73.6z M213,73.4c-0.3-0.1-0.6-0.3-0.6-0.4
				c0-0.3,0-0.6,0-0.8c0.1,0,0.3,0.1,0.4,0.1c0.4,0.1,0.6,0.3,0.6,0.4l0,0c0,0.3,0,0.6,0,0.8C213.3,73.5,213.2,73.4,213,73.4z
				 M213,71.7c-0.3-0.1-0.6-0.3-0.6-0.4l0,0c0-0.3,0-0.6,0-0.8c0.1,0,0.3,0.1,0.3,0.1c0.4,0.1,0.7,0.3,0.6,0.4l0,0
				c0,0.3,0,0.6,0,0.8C213.3,71.8,213.2,71.7,213,71.7z M213.2,70c-0.3-0.1-0.6-0.3-0.6-0.4l0,0c0-0.3,0-0.6,0-0.8
				c0.1,0.1,0.3,0.1,0.4,0.1c0.3,0.1,0.6,0.3,0.6,0.4l0,0c0,0.3,0,0.6,0,0.8C213.5,70.1,213.3,70,213.2,70z M213.3,68.5
				c-0.3-0.1-0.6-0.3-0.6-0.4c0-0.3,0-0.6,0-0.8c0.1,0,0.3,0.1,0.4,0.1c0.4,0.1,0.6,0.3,0.6,0.4l0,0c0,0.3,0,0.6,0,0.8
				C213.6,68.6,213.5,68.5,213.3,68.5z M213.3,66.8c-0.3-0.1-0.6-0.3-0.6-0.4l0,0c0-0.3,0-0.6,0-0.8c0.1,0,0.3,0.1,0.4,0.1
				c0.3,0.1,0.6,0.3,0.6,0.4l0,0c0,0.3,0,0.6,0,0.8C213.6,66.9,213.5,66.8,213.3,66.8z M213.3,65.1c-0.3-0.1-0.6-0.3-0.6-0.4l0,0
				c0-0.3,0-0.6,0-0.8c0.1,0,0.3,0.1,0.4,0.1c0.3,0.1,0.6,0.3,0.6,0.4l0,0c0,0.1,0,0.3,0,0.4s0,0.3,0,0.4
				C213.6,65.3,213.5,65.3,213.3,65.1z M213.9,52.1c-0.1,0-0.1,0-0.3-0.1c0-0.3-0.1-0.6-0.1-0.8c0,0,0,0,0.1,0
				c0.3,0,0.7,0.1,0.7,0.3l0,0c0,0.3,0.1,0.6,0.1,0.8C214.2,52.1,214,52.1,213.9,52.1z M213.6,50.6c-0.1,0-0.1,0-0.3,0
				c0-0.3-0.1-0.6-0.1-0.8c0,0,0,0,0.1,0c0.3,0,0.7,0.1,0.7,0.3c0,0.3,0.1,0.6,0.1,0.8C213.9,50.6,213.7,50.6,213.6,50.6z M213.3,49
				c-0.1,0-0.1,0-0.3,0c0-0.3-0.1-0.7-0.3-1l0,0c0.3,0,0.7,0.1,0.7,0.3c0,0.3,0.1,0.6,0.1,0.8C213.6,49,213.5,49,213.3,49z
				 M211.4,42.9c-0.1,0-0.3,0.1-0.4,0.1c0,0,0,0-0.1,0c-0.1-0.3-0.3-0.4-0.4-0.6c0-0.1,0.1-0.1,0.1-0.3
				C210.8,42.3,211.1,42.6,211.4,42.9z M211.1,41.8c0.1,0,0.1,0,0.3,0.1c0,0,0,0,0,0.1l0,0C211.2,41.9,211.2,41.8,211.1,41.8z
				 M211.8,43.5c0.1,0.3,0.3,0.6,0.6,0.8c-0.1,0-0.3,0-0.4,0s-0.1,0-0.3,0c-0.1-0.3-0.3-0.6-0.4-0.7
				C211.5,43.5,211.6,43.3,211.8,43.5z M211.8,42.3c0-0.1,0.1-0.1,0.1-0.3c0.3,0.1,0.6,0.4,0.7,0.7c-0.1,0-0.3,0.1-0.4,0.1
				c0,0,0,0-0.1,0C212.1,42.8,211.9,42.6,211.8,42.3z M212.6,45c0.1,0.3,0.3,0.6,0.3,1c-0.1,0-0.3,0-0.4-0.1c-0.1,0-0.1,0-0.3,0
				c-0.1-0.3-0.3-0.7-0.4-1C212.1,44.9,212.5,44.9,212.6,45z M212.3,46.5c0.3,0,0.7,0.1,0.7,0.3c0.1,0.3,0.1,0.6,0.3,0.8
				c-0.1,0-0.3,0-0.4-0.1c-0.1,0-0.1,0-0.3,0C212.6,47.1,212.5,46.8,212.3,46.5L212.3,46.5z M213.5,45.8c-0.1-0.3-0.3-0.7-0.4-1
				c0.3,0,0.7,0,0.7,0.1c0.1,0.3,0.3,0.6,0.3,1c-0.1,0-0.3,0-0.4-0.1C213.7,45.8,213.6,45.8,213.5,45.8z M213.2,44.3
				c-0.1,0-0.1,0-0.3,0c-0.1-0.3-0.3-0.6-0.4-0.7c0.3-0.1,0.6-0.1,0.6-0.1c0.1,0.3,0.3,0.6,0.6,0.8
				C213.5,44.3,213.3,44.3,213.2,44.3z M212.1,41.5c-0.4-0.3-1-0.4-1.5-0.4h-0.1c-0.1,0-0.3,0-0.4,0c0.8-1.7,1.3-3.6,1.4-5.6l0,0
				c1.1,0.6,2.2,1.3,3.4,2.1L212.1,41.5z M210,37.6c-0.1,0.3-0.4,0.4-0.6,0.7c-0.4,0-1,0.1-1.4,0.4c0-0.1,0-0.3,0-0.4
				c0.3-0.4,0.4-0.8,0.7-1.3c0.1-0.3,0.1-0.7,0.3-1c0.6-0.6,1.1-0.8,1.8-1.1l0,0C210.8,35.9,210.5,36.8,210,37.6z M210.1,41.8
				C210,41.9,210,41.9,210.1,41.8L210.1,41.8C210,41.9,210,41.9,210.1,41.8C210,41.9,210,41.9,210.1,41.8
				C210,41.8,210,41.8,210.1,41.8z M210.1,33c-0.1,0.3-0.3,0.6-0.4,0.8c-0.3,0.1-0.7,0.4-1,0.6c0-0.3-0.1-0.6-0.3-0.8
				c0-0.1-0.1-0.4-0.1-0.6c0-0.3,0.1-0.6,0.1-0.8c0.3-0.8,0.8-1.5,1.5-2c0.1,0.4,0.3,0.8,0.4,1.4C210.2,32.1,210.2,32.6,210.1,33z
				 M208.7,29.6c-0.3,0.3-0.4,0.6-0.6,0.7c-0.3-0.7-0.7-1.3-1.1-1.7c0-0.8,0.3-1.8,0.7-2.5c0.7,0.7,1,1.5,1.1,2.5l0,0
				C208.7,28.9,208.7,29.4,208.7,29.6z M208.3,35.1c0,0.6,0,1.3-0.1,1.8c-0.1,0.3-0.3,0.6-0.4,0.8c-0.6,0-1,0.1-1.5,0.3l0,0
				c0-0.6,0-1.3,0.1-1.8c0.3-0.8,1-1.7,1.7-2.1C208.2,34.4,208.2,34.8,208.3,35.1z M207.3,39.1c-0.1,1-0.4,1.8-1.1,2.5
				c-0.3,0.3-0.4,0.4-0.7,0.6c-0.4-0.1-1-0.3-1.5-0.3c0.1-0.6,0.4-1.1,1-1.5C205.5,39.6,206.3,39.3,207.3,39.1z M205.5,35.4
				c0,0.1,0,0.1,0,0.3c0-0.1,0-0.1-0.1-0.3c-0.1-0.3-0.3-0.6-0.4-0.7l-0.1-0.3l-0.3,0.1c-0.1,0.1-0.3,0.1-0.3,0.3
				c0-0.1,0-0.1-0.1-0.3c0-0.1,0-0.3-0.1-0.4c-0.1-0.8,0-1.5,0.3-2.4c0.3,0.1,0.6,0.4,0.7,0.7c0.1,0.6,0.4,1.1,0.8,1.5l0,0
				c0,0.1,0,0.3,0.1,0.3C205.8,34.7,205.5,35.1,205.5,35.4z M204.8,35.9c0.1,0.3,0.3,0.7,0.4,1c0,0.1,0,0.3,0,0.4v0.1
				c0,0.4,0,0.7-0.1,1.1c-0.3,0.1-0.6,0.4-0.7,0.6s-0.3,0.4-0.4,0.6v-0.1c0-0.3,0-0.6,0-0.8v-0.3h-0.3c-0.1,0-0.3,0-0.4,0
				c0-0.1,0-0.1,0-0.3C203.5,37.3,204.1,36.6,204.8,35.9z M203.3,39.8c0,0.7-0.3,1.5-0.7,2.1c-0.3,0-0.6,0.1-0.7,0.1
				c-0.8,0.3-1.5,0.8-2,1.4c0-1,0.4-1.8,1-2.5C201.6,40.4,202.4,40,203.3,39.8z M201.7,43.3c0.8-0.3,1.8-0.3,2.8,0
				c-0.4,0.8-1.3,1.4-2.1,1.8c-0.8,0.3-1.8,0.3-2.8,0C200.2,44.3,200.9,43.7,201.7,43.3z M203.7,45.1c0.6-0.4,1.1-1,1.4-1.5
				c0.8-0.3,1.7-0.1,2.5,0.1c-0.6,0.8-1.3,1.4-2.2,1.7c-0.3,0.1-0.6,0.1-0.8,0.1C204.2,45.4,204,45.3,203.7,45.1z M207.6,42.3
				c-0.4-0.1-0.8-0.1-1.1-0.1l0.1-0.1c0.6-0.6,1-1.3,1.1-2c0.7-0.4,1.4-0.6,2.1-0.6c-0.3,1-0.7,1.7-1.5,2.2
				C208.2,42.1,207.9,42.2,207.6,42.3z M209.5,42.3c0.1,0.1,0.3,0.3,0.4,0.4c-0.1,0-0.3,0.1-0.4,0.1s-0.1,0-0.3,0.1
				c-0.1,0-0.3-0.1-0.3-0.1C209.1,42.8,209.4,42.6,209.5,42.3z M209.5,43.6c0.1,0,0.1,0,0.3-0.1c0.3-0.1,0.6-0.1,0.6-0.1
				c0.1,0.3,0.3,0.6,0.6,0.8c-0.1,0-0.3,0-0.4,0c-0.3,0-0.7,0-0.8-0.1c0-0.1-0.1-0.3-0.3-0.3L209.5,43.6z M210.5,44.9
				c0.3,0,0.7,0,0.8,0.1c0.1,0.3,0.3,0.6,0.3,1c-0.1,0-0.3,0-0.4-0.1c-0.3,0-0.6-0.1-0.7-0.3c-0.1-0.3-0.3-0.6-0.3-0.8
				C210.2,44.9,210.4,44.9,210.5,44.9z M211.1,46.5c0.3,0,0.7,0.1,0.7,0.3c0.1,0.3,0.1,0.6,0.3,0.8c-0.1,0-0.3,0-0.4-0.1
				c-0.3,0-0.6-0.1-0.7-0.1c-0.1-0.3-0.1-0.6-0.3-0.8C210.8,46.5,210.9,46.5,211.1,46.5z M211.5,48.1c0.3,0,0.7,0.1,0.7,0.3
				c0,0.3,0.1,0.6,0.1,0.8c-0.1,0-0.3,0-0.4-0.1c-0.3,0-0.6-0.1-0.7-0.1c0-0.3-0.1-0.6-0.1-0.8C211.2,48.1,211.4,48.1,211.5,48.1z
				 M211.9,49.6c0.3,0,0.7,0.1,0.7,0.3c0,0.3,0.1,0.6,0.1,0.8c-0.1,0-0.3-0.1-0.4-0.1c-0.3,0-0.6-0.1-0.7-0.3c0-0.3-0.1-0.6-0.1-0.7
				C211.6,49.6,211.8,49.6,211.9,49.6z M212.2,51.1c0.3,0,0.7,0.1,0.7,0.3l0,0c0,0.3,0.1,0.6,0.1,0.8c-0.1,0-0.3-0.1-0.4-0.1
				c-0.3,0-0.6-0.1-0.7-0.3c0-0.3-0.1-0.6-0.1-0.7C211.9,51.1,212.1,51.1,212.2,51.1z M212.3,52.7c0.3,0,0.7,0.1,0.7,0.3l0,0
				c0,0.3,0.1,0.6,0.1,0.8c-0.1,0-0.3-0.1-0.4-0.1c-0.3,0-0.6-0.1-0.7-0.3c0-0.3-0.1-0.6-0.1-0.8C212.1,52.7,212.2,52.7,212.3,52.7z
				 M212.6,54.4c0.3,0,0.7,0.1,0.7,0.3l0,0c0,0.3,0,0.6,0.1,0.8c-0.1,0-0.3-0.1-0.4-0.1c-0.3-0.1-0.6-0.1-0.7-0.3
				c0-0.3,0-0.6-0.1-0.8C212.3,54.2,212.5,54.4,212.6,54.4z M212.2,75.3c0.1,0.1,0.3,0.1,0.4,0.3c0.3,0.1,0.6,0.3,0.6,0.4l0,0
				c0,0.3,0,0.6-0.1,0.8c-0.1-0.1-0.3-0.1-0.4-0.3c-0.3-0.1-0.6-0.3-0.6-0.4C212.1,75.9,212.2,75.6,212.2,75.3z M212.3,77.1
				c0.3,0.1,0.6,0.3,0.6,0.4l0,0c0,0.3-0.1,0.6-0.1,0.8c-0.1-0.1-0.3-0.1-0.4-0.3c-0.3-0.1-0.6-0.3-0.6-0.4l0,0
				c0-0.3,0.1-0.6,0.1-0.8C212.1,77,212.2,77,212.3,77.1z M212.1,78.7c0.3,0.1,0.6,0.3,0.6,0.4l0,0c0,0.3-0.1,0.6-0.1,0.8
				c-0.1-0.1-0.3-0.1-0.4-0.3c-0.3-0.1-0.6-0.3-0.6-0.4c0-0.3,0.1-0.6,0.1-0.8C211.9,78.5,212.1,78.7,212.1,78.7z M212.3,83.4
				C212.3,83.6,212.3,83.6,212.3,83.4c0.3,0.1,0.6,0.4,0.6,0.6c-0.1,0.3-0.3,0.6-0.3,0.8c-0.1-0.1-0.3-0.1-0.3-0.3l-0.1-0.1
				C212.1,84.1,212.2,83.8,212.3,83.4z M212.8,83c-0.1,0-0.1-0.1-0.3-0.1c0.1-0.3,0.1-0.7,0.3-1l0,0c0.3,0.1,0.6,0.4,0.6,0.4
				c-0.1,0.3-0.1,0.6-0.3,0.8C212.9,83.1,212.8,83.1,212.8,83z M213.2,81.5c-0.1,0-0.1-0.1-0.3-0.1c0.1-0.3,0.1-0.7,0.1-1l0,0
				c0.3,0.1,0.6,0.3,0.6,0.4c0,0.3-0.1,0.6-0.1,0.8C213.3,81.6,213.3,81.5,213.2,81.5z M213.5,79.8c-0.1,0-0.1-0.1-0.3-0.1
				c0-0.3,0.1-0.7,0.1-1l0,0l0,0c0.3,0.1,0.6,0.3,0.6,0.4l0,0c0,0.3-0.1,0.6-0.1,0.8C213.7,79.9,213.6,79.9,213.5,79.8z M213.7,78.2
				c-0.1,0-0.1-0.1-0.3-0.1c0-0.3,0.1-0.7,0.1-1c0,0,0,0,0.1,0c0.3,0.1,0.6,0.3,0.6,0.4l0,0c0,0.3-0.1,0.6-0.1,0.8
				C214,78.4,213.9,78.2,213.7,78.2z M214,76.6c-0.1,0-0.1-0.1-0.3-0.1c0-0.3,0.1-0.7,0.1-1l0,0c0.3,0.1,0.6,0.3,0.6,0.4l0,0
				c0,0.3,0,0.6-0.1,0.8C214.3,76.7,214.2,76.6,214,76.6z M214.2,74.9c-0.1,0-0.1-0.1-0.3-0.1c0-0.3,0-0.7,0.1-1l0,0c0,0,0,0,0.1,0
				c0.3,0.1,0.6,0.3,0.6,0.4l0,0c0,0.3,0,0.6-0.1,0.8C214.4,75,214.3,75,214.2,74.9z M214.3,73.4c-0.1,0-0.1-0.1-0.3-0.1
				c0-0.3,0-0.7,0.1-1l0,0c0.4,0.1,0.6,0.3,0.6,0.4l0,0c0,0.3,0,0.6,0,0.8C214.6,73.5,214.4,73.4,214.3,73.4z M214.4,71.7
				c-0.1,0-0.1-0.1-0.3-0.1c0-0.3,0-0.7,0-1l0,0l0,0c0.4,0.1,0.7,0.3,0.6,0.4l0,0c0,0.3,0,0.6,0,0.8
				C214.7,71.8,214.6,71.7,214.4,71.7z M214.4,70c-0.1,0-0.1-0.1-0.3-0.1c0-0.3,0-0.6,0-1c0,0,0,0,0.1,0c0.3,0.1,0.6,0.3,0.6,0.4
				l0,0c0,0.3,0,0.6,0,0.8C214.9,70.1,214.6,70,214.4,70z M214.6,68.5c-0.1,0-0.3-0.1-0.3-0.1c0-0.3,0-0.7,0-1l0,0c0,0,0,0,0.1,0
				c0.4,0.1,0.6,0.3,0.6,0.4l0,0c0,0.3,0,0.6,0,0.8C214.9,68.6,214.7,68.5,214.6,68.5z M214.6,66.8c-0.1,0-0.3-0.1-0.3-0.1
				c0-0.3,0-0.7,0-1c0,0,0,0,0.1,0c0.3,0.1,0.6,0.3,0.6,0.4l0,0c0,0.3,0,0.6,0,0.8C214.9,66.9,214.7,66.8,214.6,66.8z M214.7,65.1
				c-0.1,0-0.3-0.1-0.3-0.1v-0.1c0-0.3,0-0.6,0-0.8h0.1c0.3,0.1,0.6,0.3,0.6,0.4l0,0c0,0.1,0,0.3,0,0.4c0,0.1,0,0.3,0,0.4
				C215,65.3,214.9,65.3,214.7,65.1z M215.1,52.1c-0.1,0-0.1,0-0.3-0.1c0-0.3-0.1-0.6-0.1-0.8c0,0,0,0,0.1,0c0.3,0,0.7,0.1,0.7,0.3
				l0,0c0,0.3,0.1,0.6,0.1,0.8C215.4,52.1,215.3,52.1,215.1,52.1z M215,50.6c-0.1,0-0.1,0-0.3,0c0-0.3-0.1-0.6-0.1-0.8
				c0,0,0,0,0.1,0c0.3,0,0.7,0.1,0.7,0.3c0,0.3,0.1,0.6,0.1,0.8C215.3,50.6,215.1,50.6,215,50.6z M214.7,49c-0.1,0-0.1,0-0.3,0
				c0-0.3-0.1-0.7-0.3-1l0,0c0.3,0,0.7,0.1,0.7,0.3c0,0.3,0.1,0.6,0.1,0.8C215,49,214.7,49,214.7,49z M214.3,47.5
				c-0.1,0-0.1,0-0.3,0c-0.1-0.3-0.1-0.6-0.3-0.8l0,0c0.3,0,0.7,0.1,0.7,0.3c0.1,0.3,0.1,0.6,0.3,0.8
				C214.6,47.5,214.4,47.5,214.3,47.5z M214.3,44.4c-0.1-0.3-0.3-0.7-0.4-1l2.9-4.3c0.6,0.4,1,0.8,1.4,1.3L214.3,44.4z M207.7,31.7
				L207.7,31.7c0,0.3,0,0.7,0,1c-0.4,0.3-0.8,0.6-1.3,1c-0.3-0.6-0.6-1.1-0.6-1.7l0,0c-0.1-1,0.1-1.8,0.7-2.7
				C207.2,29.9,207.6,30.8,207.7,31.7z M204.1,22.9c0.8,0.4,1.5,1.1,1.8,2c0.1,0.3,0.1,0.6,0.3,0.8c-0.1,0.3-0.3,0.7-0.4,1l0,0
				c-0.4-0.7-1-1.3-1.8-1.7c-0.1-0.3-0.1-0.6-0.1-0.8C204,23.9,204,23.5,204.1,22.9z M203.3,25.6c0.8,0.3,1.7,1,2.1,1.7
				c0.1,0.3,0.3,0.6,0.4,0.8c-0.3,0.4-0.6,0.8-0.7,1.4c-0.6-0.3-1-0.7-1.3-1.3c-0.3-0.6-0.6-1.1-0.6-1.7
				C203.1,26.1,203.1,25.9,203.3,25.6z M204.7,30.2l0.1,0.1c0,0.3,0,0.7,0,1c-0.1-0.1-0.3-0.1-0.4-0.3c-0.3-0.1-0.4-0.3-0.7-0.6
				l-0.3-0.1l-0.1,0.3c0,0.1-0.1,0.3-0.1,0.4l-0.1-0.1c-0.1-0.1-0.3-0.3-0.4-0.6c0-0.6,0-1.3,0-1.8c0.1,0,0.3,0.1,0.4,0.1
				C203.3,29.4,204,29.9,204.7,30.2z M202.3,22.4c0.1,0.3,0.4,0.6,0.6,0.7c0,0.6,0,1,0,1.5c0,0-0.1,0-0.1-0.1
				c-0.1-0.3-0.4-0.4-0.6-0.6c-0.1-0.7-0.3-1.4-0.4-2.1C201.9,22.1,202,22.2,202.3,22.4z M202.6,34.9c0-1,0-2,0-2.9
				c0.4,0.8,0.7,1.8,0.7,2.9c0,3.8-3.1,6.8-6.8,6.8s-6.8-3.1-6.8-6.8c0-1.1,0.3-2.1,0.7-3.1c0,0.8,0,2,0,3.1c0,3.4,2.8,6.1,6.1,6.1
				S202.6,38.3,202.6,34.9z M191.8,3.2c0.4-1.3,1.3-0.7,2.2,0.7l0,0c0,0,0.1,0.1,0.3,0.1l0,0c-1,2.1-1.4,5.2-1.1,8.4l0,0
				C192.6,10.2,191.2,4.9,191.8,3.2z M191,17.8C191,17.8,191,17.6,191,17.8C191,17.6,191,17.6,191,17.8c0.1-0.6,0.6-1.5,1-2
				c0.6-0.4,1.1-0.4,1.4,0c0.3,0.4,0.1,0.8-0.6,1.1c-0.6,0.3-0.7,0.7-1,1.1c-0.1,0.1-0.3,0.3-0.4,0.3h-0.1l0,0l0,0
				C191.1,18.2,191,17.9,191,17.8z M182.9,21.3l5.9-3.5l0,0c0.4-1.1,1.4-2.1,2-2.7c0.4-0.4,1.1-1,1.8-1.7c-1,2.7-2.1,5.2-3.4,5.9
				c-1.3,0.6-4.1,1.8-4.7,2l0,0c-0.4,0.1-1.3,0.4-1.7,0.3C182.6,21.4,182.6,21.4,182.9,21.3z M182.6,22.8c0.6,0,1.3-0.1,2-0.4
				c0.3-0.1,0.4-0.4,0.3-0.7c-0.1-0.1-0.3-0.3-0.4-0.4c1,0,1.5,0.8,1,1.7c0,0,1,1.1,3.5-0.6c2.9-1.8,8.5,0.6,10.3-5
				c-0.6-0.1-1.5-1.5,0.3-3.2s2.5-3.8,2.8-4.5c0,0,0-0.1,0.1-0.1c0.4,0.4,0.7,1.3,0.7,2.1c0,0.6-0.1,1.3-0.4,2.1
				c-0.4,1.1-1,1.7-1.5,2.2c-0.6,0.6-1.1,1.1-1.4,2.1v0.1l0,0c1.5,7,0,11.7-6.4,17.2c-2.1-2.1-2.4-5.4-2.2-7.1V28
				c0.6,0.1,1.3,0.1,1.8,0.1v-0.6c-3.1,0-7-1.3-7-1.4c-2.9-0.3-3.4-0.8-3.4-1.3c1.1,0.3,2.2,0.3,3.9,0l-0.1-0.6
				c-1.8,0.3-2.9,0.3-4.1,0l0,0C182,23.6,182.3,23.1,182.6,22.8z M165.1,40.5C165.1,40.5,165.1,40.4,165.1,40.5
				C165.1,40.4,165,40.4,165.1,40.5C165,40.4,165,40.4,165.1,40.5c-0.6,0.4-0.8,1.3-0.8,2c0,0.1,0,0.1,0,0.3l-0.1-0.1
				c-0.6-0.7-0.1-2,0.3-2.8v-0.1h-0.1l0,0c-0.4,0.6-0.7,1.3-0.7,2c0,0.1,0,0.1,0,0.3l0,0c-0.6-0.6-0.4-1.8,0.4-2.9
				c4.6-6.3,11-11,18.2-13.7c0.3,0.4,0.7,0.7,2,1c-1.1,1.5-2,3.5-2.4,5.4c-0.3,0.3-0.6,0.6-1,0.8c-1,0.6-2,0.3-2.5-0.7
				c-0.6-1-0.3-2,0.7-2.5c0.4-0.3,1-0.4,1.5-0.4l-0.4-1.1c-0.6,0.1-1.1,0.3-1.7,0.6c-1.7,0.8-2.4,2.4-1.4,4.2c1,1.8,2.9,1.7,4.2,1
				c0.1-0.1,0.3-0.1,0.4-0.3c0,0.4-0.1,1-0.1,1.4h-0.1c-4.6,2.5-8.5,6-11.6,10.5c-0.4,0.7-0.7,1.4-0.7,2.1l0,0
				c-0.6-0.7-0.1-2,0.3-2.8v-0.1h-0.1l0,0c-0.4,0.6-0.7,1.3-0.7,2c0,0.1,0,0.1,0,0.3l-0.1-0.1c-0.6-0.7-0.1-2,0.3-2.8v-0.1h-0.1l0,0
				c-0.4,0.6-0.7,1.3-0.7,2c0,0.1,0,0.1,0,0.3l-0.1-0.1c-0.6-0.7-0.1-2,0.3-2.8v-0.1h-0.1l0,0c-0.4,0.6-0.7,1.3-0.7,2
				c0,0.1,0,0.1,0,0.3l-0.1-0.1c-0.6-0.7-0.1-2,0.3-2.8v-0.1h-0.1l0,0c-0.4,0.6-0.7,1.3-0.7,2c0,0.1,0,0.1,0,0.3l-0.1-0.1
				c-0.6-0.7-0.1-2,0.3-2.8v-0.1h-0.1l0,0c-0.4,0.6-0.7,1.3-0.7,2c0,0.1,0,0.1,0,0.3l-0.1-0.1c-0.6-0.7-0.1-2,0.3-2.8v-0.1h-0.1l0,0
				c-0.4,0.6-0.7,1.3-0.7,2c0,0.1,0,0.1,0,0.3l-0.1-0.1C164.3,42.6,164.7,41.2,165.1,40.5z M161.9,59c-0.4-0.7-0.1-2,0.4-2.7v-0.1
				h-0.1l0,0c-0.4,0.6-0.7,1.3-0.7,2c0,0.1,0,0.1,0,0.3l-0.1-0.1c-0.6-0.6-0.1-2.1,0.3-2.8v-0.1h-0.1l0,0c-0.4,0.6-0.7,1.3-0.7,2
				c0,0.1,0,0.1,0,0.3l-0.1-0.1c-0.6-0.6-0.1-2.1,0.3-2.8v-0.1h-0.1l0,0c-0.4,0.6-0.7,1.3-0.7,2c0,0.1,0,0.1,0,0.3l-0.1-0.1
				c-0.6-0.6-0.1-2.1,0.3-2.8v-0.1h-0.1l0,0c-0.4,0.6-0.7,1.3-0.7,2c0,0.1,0,0.1,0,0.3l-0.1-0.1c-0.6-0.6-0.1-2.1,0.3-2.8v-0.1h-0.1
				l0,0c-0.4,0.6-0.7,1.3-0.7,2c0,0.1,0,0.1,0,0.3l-0.1-0.1c-0.6-0.6-0.1-2.1,0.3-2.8V52h-0.1l0,0c-0.4,0.6-0.7,1.3-0.7,2
				c0,0.1,0,0.1,0,0.3l-0.1-0.1c-0.6-0.6-0.1-2.1,0.3-2.8v-0.1H158l0,0c-0.4,0.6-0.7,1.3-0.7,2c0,0.1,0,0.1,0,0.3l-0.1-0.1
				c-0.6-0.6-0.1-2.1,0.3-2.8v-0.1h-0.1l0,0c-0.4,0.6-0.7,1.3-0.7,2c0,0.1,0,0.1,0,0.3c-0.7-0.7-0.3-2.4,1-3.5
				c2.1-2.1,4.6-4.1,7.5-5.7l0.6,0.6c-1.1,0.6-2.1,1.3-2.9,1.8l0,0l0,0l0,0l0,0c0,0,0,0,0.1,0c0,0,1.4-0.8,3.1-1.7l0.6,0.6
				c-1.1,0.6-2.1,1.3-2.9,1.8c0,0,0,0,0,0.1c0,0,0,0,0.1,0c0,0,1.4-0.8,3.1-1.7l0.6,0.6c-1.1,0.6-2.1,1.1-2.9,1.8l0,0l0,0l0,0
				c0,0,0,0,0.1,0c0,0,1.4-0.8,3.1-1.7l0.6,0.6c-1.1,0.6-2.1,1.1-2.9,1.7c0,0,0,0,0,0.1c0,0,0,0,0.1,0c0,0,1.4-0.8,3.1-1.7l0.6,0.6
				c-1.1,0.6-2.1,1.1-2.9,1.7l0,0l0,0l0,0c0,0,0,0,0.1,0c0,0,1.4-0.8,3.1-1.7l0.6,0.6c-1.1,0.6-2.1,1.1-2.9,1.7l0,0l0,0l0,0l0,0
				c0,0,0,0,0.1,0c0,0,1.4-0.8,3.1-1.7l0.3,0.3l0,0c0.1,0.1,0.1,0.1,0.3,0.3c-1.1,0.6-2.2,1.1-3.1,1.7l0,0l0,0l0,0c0,0,0,0,0.1,0
				c0,0,1.5-0.8,3.2-1.7c0.6,0.1,1.1,0.1,1.8-0.1c-1.1,0.6-2.9,1.4-4.5,2.4c0,0,0,0,0,0.1c0,0,0,0,0.1,0c0,0,2.9-1.5,5.2-2.5
				c0,0.3,0,0.4,0,0.6c-3.9,1.7-7.1,3.8-9.5,6.1C162.5,56.9,161.9,58,161.9,59z M173.4,60.9c-2.4,2.4-6.3,7-6.8,12
				c-0.7-1.4-1.1-2.8-1.1-4.6c0-1.4,0.1-3.2,0.6-5.4l0.1-0.7l-0.6,0.3c-2.9,1.7-4.1,2.5-4.7,3.6c0.3-1.7,1-3.5,2.1-5.3
				c1.3,0.8,2.8,0.4,4.5-1.1c0.7-0.6,1.4-1.1,2.2-1.7c-0.1,0.3-0.4,0.4-0.6,0.6v0.1c0,0,0,0,0.1,0l0,0l0,0l0,0
				c0.6-0.4,1-0.8,1.3-1.3c0.1-0.1,0.3-0.3,0.6-0.3c0.1-0.1,0.4-0.3,0.6-0.3c-0.3,0.8-1,1.8-1.8,2.5c0,0,0,0,0,0.1c0,0,0,0,0.1,0
				l0,0l0,0l0,0c1.1-0.8,1.8-1.8,2.1-2.8c0.1,0,0.4-0.1,0.6-0.1c-0.1,1.3-1.1,2.7-2.1,3.5c0,0,0,0,0,0.1c0,0,0,0,0.1,0l0,0l0,0l0,0
				c1.4-1,2.2-2.4,2.4-3.6c0.1,0,0.3,0,0.3,0c0.3,1.4-0.8,3.1-2.1,4.2c0,0,0,0,0,0.1c0,0,0,0,0.1,0l0,0l0,0l0,0c1.1-0.8,2-2,2.2-3.1
				c0,0.4,0.1,0.8,0.1,1.3c-0.4,0.8-1,1.7-1.8,2.4c0,0,0,0,0,0.1c0,0,0,0,0.1,0l0,0l0,0l0,0c0.7-0.6,1.4-1.3,1.8-2
				c0,0.3,0.1,0.6,0.1,1L173.4,60.9z M196.4,93.1c-6.6-1.7-11.7-6.1-15.5-13.1c2.1,5,6,9.4,11,12.2c-4.9-2.4-8.9-6.6-11.9-12.4
				c-4.2-8-6.4-18.9-6.7-32.4c3.2-1.5,6.6-2.8,9.9-3.6c0.3,0,0.6-0.1,0.8-0.1c2.7,3.9,7.3,6.4,12.3,6.4c5,0,9.5-2.5,12.2-6.3
				c0.1,0.1,0.3,0.4,0.6,0.7c1.5,2.7,2.9,10.3,2.9,20.5c0,7.3-0.7,14-2,17.9C206.6,88,202,91.5,196.4,93.1z M208.4,87.9
				c-0.1,0-0.3,0-0.4,0s-0.1,0-0.3,0c0.3-0.3,0.4-0.4,0.7-0.7v0.1C208.4,87.6,208.4,87.9,208.4,87.9z M200.9,92.1
				c3.6-2.1,6.7-4.9,8.9-8.4c-0.3,1-0.7,1.7-1.1,2.1l0,0C206.5,88.6,203.8,90.7,200.9,92.1z M209,87.7c0-0.1,0-0.3,0-0.4
				c0-0.3,0-0.6,0-0.7c0.1-0.1,0.1-0.3,0.3-0.4c0.1,0.1,0.1,0.3,0.3,0.4c0.1,0.1,0.3,0.3,0.3,0.4C209.7,87.3,209.4,87.5,209,87.7z
				 M210.1,86.1c-0.3-0.3-0.4-0.4-0.3-0.6l0,0c0.1-0.3,0.3-0.6,0.4-0.8c0.1,0.1,0.3,0.1,0.3,0.3c0.3,0.1,0.4,0.4,0.4,0.4
				c-0.1,0.3-0.3,0.7-0.6,1C210.2,86.3,210.1,86.2,210.1,86.1z M210.4,87.7c0-0.1,0-0.1,0-0.3l0,0c0.3-0.3,0.4-0.6,0.6-0.8
				c0.1,0.1,0.3,0.3,0.3,0.4C210.9,87.3,210.7,87.5,210.4,87.7z M211.4,86.1L211.4,86.1c0-0.4,0.3-0.7,0.4-1.1l0,0
				c0.3,0.1,0.4,0.4,0.4,0.4c-0.1,0.3-0.3,0.7-0.6,1C211.5,86.3,211.5,86.2,211.4,86.1z M211.6,87.7c0-0.1,0-0.1,0-0.3
				c0.3-0.3,0.4-0.6,0.6-0.8c0.1,0.1,0.3,0.3,0.3,0.4C212.3,87.3,212.1,87.5,211.6,87.7z M213,86.5c-0.1-0.1-0.1-0.1-0.3-0.3
				l-0.1-0.1c0.1-0.3,0.3-0.7,0.4-1l0,0l0,0c0.3,0.1,0.4,0.4,0.4,0.4C213.3,85.8,213.2,86.2,213,86.5z M213.7,84.8
				c-0.1-0.1-0.3-0.1-0.3-0.3l-0.1-0.1c0.1-0.3,0.3-0.6,0.3-1l0,0c0.1,0.1,0.4,0.3,0.4,0.4C214,84.3,213.9,84.5,213.7,84.8z
				 M214.4,83.3c-0.1-0.1-0.3-0.1-0.3-0.3c-0.1,0-0.1-0.1-0.3-0.1c0.1-0.3,0.1-0.7,0.3-1l0,0c0.3,0.1,0.6,0.4,0.6,0.4
				C214.6,82.7,214.4,83,214.4,83.3z M214.9,81.7c-0.1-0.1-0.3-0.1-0.4-0.3c-0.1,0-0.1-0.1-0.3-0.1c0.1-0.3,0.1-0.7,0.1-1l0,0
				c0.3,0.1,0.6,0.3,0.6,0.4C215,81,214.9,81.3,214.9,81.7z M215.1,80.1c-0.1-0.1-0.3-0.1-0.4-0.3c-0.1,0-0.1-0.1-0.3-0.1
				c0-0.3,0.1-0.7,0.1-1l0,0l0,0c0.3,0.1,0.6,0.3,0.6,0.4l0,0C215.3,79.5,215.3,79.8,215.1,80.1z M215.4,78.4
				c-0.1-0.1-0.3-0.1-0.4-0.3c-0.1,0-0.1-0.1-0.3-0.1c0-0.3,0.1-0.7,0.1-1l0,0l0,0c0.3,0.1,0.6,0.3,0.6,0.4l0,0
				C215.6,77.8,215.6,78.1,215.4,78.4z M215.7,76.8c-0.1-0.1-0.3-0.1-0.4-0.3c-0.1,0-0.1-0.1-0.3-0.1c0-0.3,0.1-0.7,0.1-1
				c0,0,0,0,0.1,0c0.3,0.1,0.6,0.3,0.6,0.4l0,0C215.8,76.1,215.7,76.4,215.7,76.8z M215.8,75.2c-0.1-0.1-0.3-0.1-0.4-0.3
				c-0.1,0-0.1-0.1-0.3-0.1c0-0.3,0-0.7,0.1-1c0,0,0,0,0.1,0c0.3,0.1,0.6,0.3,0.6,0.4l0,0C216,74.6,216,74.9,215.8,75.2z
				 M216.1,73.5c-0.1-0.1-0.3-0.1-0.4-0.3c-0.1,0-0.1-0.1-0.3-0.1c0-0.3,0-0.7,0.1-1l0,0c0.4,0.1,0.6,0.3,0.6,0.4l0,0
				C216.1,72.9,216.1,73.2,216.1,73.5z M216.1,71.8c-0.1-0.1-0.3-0.1-0.4-0.3c-0.1,0-0.1-0.1-0.3-0.1c0-0.3,0-0.7,0-1l0,0
				c0.4,0.1,0.6,0.3,0.6,0.4l0,0C216.3,71.3,216.3,71.5,216.1,71.8z M216.3,70.1c-0.1-0.1-0.3-0.1-0.4-0.3c-0.1,0-0.1-0.1-0.3-0.1
				c0-0.3,0-0.6,0-1c0,0,0,0,0.1,0c0.3,0.1,0.6,0.3,0.6,0.4l0,0C216.3,69.6,216.3,69.9,216.3,70.1z M216.4,68.6
				c-0.1,0-0.3-0.1-0.4-0.1s-0.3-0.1-0.3-0.1c0-0.3,0-0.7,0-1c0,0,0,0,0.1,0c0.4,0.1,0.6,0.3,0.6,0.4l0,0
				C216.4,68,216.4,68.3,216.4,68.6z M216.4,66.9c-0.1-0.1-0.3-0.1-0.4-0.1s-0.3-0.1-0.3-0.1c0-0.3,0-0.7,0-1c0,0,0,0,0.1,0
				c0.3,0.1,0.6,0.3,0.6,0.4l0,0C216.4,66.4,216.4,66.7,216.4,66.9z M216.4,65.4c-0.1,0-0.3-0.1-0.4-0.1s-0.3-0.1-0.3-0.1V65
				c0-0.3,0-0.6,0-0.8h0.1c0.3,0.1,0.6,0.3,0.6,0.4l0,0c0,0.1,0,0.3,0,0.4C216.4,65,216.4,65.1,216.4,65.4z M217,68.5
				c0-1.4,0-2.7,0-3.6c0-3.9-0.3-14-2.4-19.7c1.7,0.6,3.2,1.3,4.9,2.1C219.3,55.3,218.5,62.3,217,68.5z M232,66.1
				c-0.7-1.1-2-2.1-4.7-3.6l-0.6-0.3l0.1,0.7c0.4,2.2,0.6,4.1,0.6,5.4c0,1.8-0.4,3.2-1.1,4.6c-0.6-4.9-4.3-9.5-6.8-12l-0.4-0.6
				c0-0.3,0.1-0.6,0.1-1c0.4,0.7,1,1.4,1.8,2l0,0l0,0l0,0h0.1v-0.1c-0.8-0.7-1.4-1.5-1.8-2.4c0-0.4,0.1-0.8,0.1-1.3
				c0.3,1.1,1.1,2.2,2.2,3.1l0,0l0,0l0,0h0.1v-0.1c-1.3-1.1-2.4-2.8-2.1-4.2c0.1,0,0.3,0,0.3,0c0.1,1.3,1,2.7,2.4,3.6l0,0l0,0l0,0
				h0.1v-0.1c-0.8-0.8-2-2.2-2.1-3.5c0.1,0,0.3,0,0.6,0.1c0.3,1,1.1,2,2.1,2.8l0,0l0,0l0,0h0.1v-0.1c-0.8-0.7-1.5-1.7-1.8-2.5
				c0.1,0.1,0.4,0.1,0.6,0.3c0.1,0.1,0.3,0.3,0.6,0.3c0.4,0.4,0.8,0.8,1.3,1.3l0,0l0,0l0,0h0.1v-0.1c-0.1-0.1-0.4-0.4-0.6-0.6
				c0.8,0.6,1.5,1.1,2.2,1.7c1.7,1.5,3.2,2,4.5,1.1C231.1,62.6,231.8,64.4,232,66.1z M236.4,53.7L236.4,53.7c0-0.1,0-0.1,0-0.3
				c0-0.7-0.4-1.4-0.7-2l0,0c0,0,0,0-0.1,0c0,0,0,0,0,0.1c0.4,0.7,0.8,2.2,0.3,2.8l-0.1,0.1c0-0.1,0-0.3,0-0.3c0-0.7-0.4-1.4-0.7-2
				l0,0c0,0,0,0-0.1,0c0,0,0,0,0,0.1c0.4,0.8,0.8,2.2,0.3,2.8l-0.1,0.1c0-0.1,0-0.3,0-0.3c0-0.7-0.4-1.4-0.7-2l0,0c0,0,0,0-0.1,0
				c0,0,0,0,0,0.1c0.4,0.8,0.8,2.2,0.3,2.8l-0.1,0.1c0-0.1,0-0.3,0-0.3c0-0.7-0.4-1.4-0.7-2l0,0c0,0,0,0-0.1,0c0,0,0,0,0,0.1
				c0.4,0.8,0.8,2.2,0.3,2.8l-0.1,0.1c0-0.1,0-0.3,0-0.3c0-0.7-0.4-1.4-0.7-2l0,0c0,0,0,0-0.1,0c0,0,0,0,0,0.1
				c0.4,0.8,0.8,2.2,0.3,2.8l-0.1,0.1c0-0.1,0-0.3,0-0.3c0-0.7-0.4-1.4-0.7-2l0,0c0,0,0,0-0.1,0c0,0,0,0,0,0.1
				c0.4,0.8,0.8,2.2,0.3,2.8l-0.1,0.1c0-0.1,0-0.3,0-0.3c0-0.7-0.4-1.4-0.7-2l0,0c0,0,0,0-0.1,0c0,0,0,0,0,0.1
				c0.4,0.8,0.8,2.2,0.3,2.8l-0.1,0.1c0-0.1,0-0.3,0-0.3c0-0.7-0.4-1.4-0.7-2l0,0c0,0,0,0-0.1,0c0,0,0,0,0,0.1
				c0.4,0.7,0.8,2,0.4,2.7c0-1-0.6-2.1-1.5-2.9c-2.2-2.2-5.6-4.5-9.5-6.1c0-0.1,0-0.4,0-0.6c2.2,0.8,5,2.5,5.2,2.5h0.1v-0.1
				c-1.5-1-3.4-1.8-4.5-2.4c0.7,0.3,1.3,0.3,1.8,0.1c1.7,0.8,3.2,1.7,3.4,1.7h0.1l0,0l0,0l0,0c-0.8-0.6-1.8-1.1-3.1-1.7
				c0.1,0,0.3-0.1,0.3-0.3l0,0l0,0l0.3-0.3c1.7,0.8,3.1,1.7,3.1,1.7h0.1l0,0l0,0l0,0l0,0c-0.8-0.6-1.8-1.1-2.9-1.7l0.6-0.6
				c1.7,0.8,3.1,1.7,3.1,1.7h0.1l0,0l0,0l0,0c-0.8-0.6-1.8-1.1-2.9-1.7l0.6-0.6c1.7,0.8,3.1,1.7,3.1,1.7h0.1v-0.1
				c-0.8-0.6-1.8-1.1-2.9-1.7l0.6-0.6c1.7,0.8,3.1,1.7,3.1,1.7h0.1l0,0l0,0l0,0c-0.8-0.6-1.8-1.1-2.9-1.8l0.6-0.6
				c1.5,0.8,3.1,1.7,3.1,1.7h0.1V49c-0.8-0.6-1.8-1.1-2.9-1.8l0.6-0.6c1.5,0.8,2.9,1.7,3.1,1.7h0.1l0,0l0,0l0,0l0,0
				c-0.8-0.6-1.8-1.1-2.9-1.8l0.6-0.6c2.9,1.7,5.6,3.6,7.5,5.7C236.6,51.3,237.1,53,236.4,53.7z M199.6,16.6L199.6,16.6
				c0.3-0.6,0.7-0.8,1.1-1.3c0.6-0.6,1-1,1.4-2c0.1-0.6,0.3-1,0.3-1.5c-0.4,0.8-1.1,2-2.1,2.8c-0.6,0.4-0.8,1-0.8,1.4l0,0
				C199.5,16.4,199.6,16.5,199.6,16.6z"/>
			<path d="M171.6,38.4c-1.5-1.4-2.8,1.1-3.5,0.4c-0.4-0.3,0-0.8,0.3-1.1c0.3-0.3,0.7-0.6,1-0.8l-0.8-0.8c-0.3,0.1-0.7,0.6-1.1,1
				c-0.7,0.8-1.4,2.1-0.3,2.9c1.5,1.4,2.8-1.1,3.6-0.4c0.3,0.3,0.1,0.7-0.1,1.1c-0.4,0.4-0.8,0.8-1.3,1l0.8,1c0.4-0.3,1-0.7,1.3-1.1
				C172.1,40.5,172.7,39.4,171.6,38.4z"/>
			<path d="M173.9,37l1.7-1.4l1.1,0.7l1.3-1l-5.3-3.1l-1.4,1.1l2,5.7l1.1-1L173.9,37z M172.7,33.8L172.7,33.8l2,1.3l-1.1,0.8
				L172.7,33.8z"/>
			<path d="M219.7,32l-5.2,3.1l1.3,1l1.1-0.7l1.7,1.3l-0.4,1.3l1.3,1l1.8-5.7L219.7,32z M218.9,35.6l-1.1-0.8l2-1.3l0,0L218.9,35.6z
				"/>
		</g>
	</g>
</g>
<g>
	<g>
		<g>
			<g>
				<path d="M0.3,35.5c0.4,0.3,1.1,0.4,2,0.4c0.6,0,1.1-0.1,1.1-0.7C3.4,34,0,34.8,0,32.1c0-1.7,1.7-2.2,3.1-2.2
					c0.7,0,1.4,0.1,1.8,0.3l-0.1,1.4c-0.4-0.3-1-0.3-1.5-0.3c-0.4,0-1.3,0-1.3,0.7c0,1.1,3.4,0.4,3.4,2.9c0,1.8-1.5,2.4-3.1,2.4
					c-0.7,0-1.5-0.1-2.1-0.3L0.3,35.5z"/>
			</g>
			<g>
				<path d="M10.8,33.4c-0.3-0.1-0.7-0.3-1.1-0.3c-0.8,0-1.4,0.6-1.4,1.4s0.7,1.4,1.5,1.4c0.4,0,0.8-0.1,1.1-0.3V37
					c-0.4,0.1-1,0.3-1.5,0.3c-1.7,0-3.1-1-3.1-2.8c0-1.8,1.4-2.8,3.1-2.8c0.6,0,1,0.1,1.4,0.3V33.4z"/>
			</g>
			<g>
				<path d="M11.9,29.6h1.8v3.1l0,0c0.4-0.6,1-0.8,1.8-0.8c1.4,0,2,1,2,2.1v3.4h-1.8v-2.5c0-1-0.3-1.4-0.8-1.4
					c-0.7,0-1.1,0.6-1.1,1.7v2.2h-1.8V29.6z"/>
			</g>
			<g>
				<path d="M18.4,32h2l0.8,3.8l0,0l1-3.8h2.2l0.8,3.8l0,0l0.8-3.8h1.8l-1.7,5.3h-2.1l-0.8-3.8l0,0l-1,3.8h-2.1L18.4,32z"/>
			</g>
			<g>
				<path d="M30.3,35.1c0.1,0.7,0.7,1,1.5,1c0.6,0,1.1-0.1,1.7-0.4v1.3c-0.6,0.3-1.3,0.3-2,0.3c-1.7,0-3.1-1-3.1-2.8
					c0-1.8,1.1-2.8,2.8-2.8c2,0,2.7,1.4,2.7,2.9v0.3h-3.6V35.1z M32.4,34.1c0-0.6-0.3-1.1-1-1.1c-0.7,0-1,0.6-1,1.1H32.4z"/>
			</g>
			<g>
				<path d="M37.3,31h-1.8v-1.4h1.8V31z M35.5,32h1.8v5.3h-1.8V32z"/>
			</g>
			<g>
				<path d="M38.6,35.8l2.4-2.5h-2.4v-1.4H43v1.4l-2.4,2.5h2.5v1.4h-4.6V35.8z"/>
			</g>
			<g>
				<path d="M45.8,35.1c0.1,0.7,0.7,1,1.5,1c0.6,0,1.1-0.1,1.7-0.4v1.3c-0.6,0.3-1.3,0.3-2,0.3c-1.7,0-3.1-1-3.1-2.8
					c0-1.8,1.1-2.8,2.8-2.8c2,0,2.7,1.4,2.7,2.9v0.3h-3.6V35.1z M47.8,34.1c0-0.6-0.3-1.1-1-1.1c-0.7,0-1,0.6-1,1.1H47.8z"/>
			</g>
			<g>
				<path d="M54.5,33.4c-0.1,0-0.4,0-0.6,0c-0.8,0-1.4,0.6-1.4,1.7v2.2h-1.8V32h1.7v1l0,0c0.3-0.7,0.8-1.1,1.5-1.1
					c0.3,0,0.4,0,0.6,0V33.4z"/>
			</g>
			<g>
				<path d="M61,30.2h2.4l2.8,7.1h-2.1l-0.6-1.5h-2.7l-0.6,1.5h-2L61,30.2z M62.2,31.6L62.2,31.6l-1,2.8H63L62.2,31.6z"/>
			</g>
			<g>
				<path d="M67.2,29.6H69v7.5h-1.8V29.6z"/>
			</g>
			<g>
				<path d="M70.5,32h1.7v1l0,0c0.4-0.7,1.1-1.1,2-1.1c1.4,0,2.2,1.4,2.2,2.7c0,1.5-0.8,2.8-2.4,2.8c-0.7,0-1.4-0.3-1.7-0.8l0,0v2.9
					h-1.8V32z M73.5,33.3c-0.7,0-1.1,0.6-1.1,1.4s0.6,1.4,1.1,1.4c0.7,0,1.1-0.6,1.1-1.4C74.6,33.8,74.2,33.3,73.5,33.3z"/>
			</g>
			<g>
				<path d="M79.2,35.1c0.1,0.7,0.7,1,1.5,1c0.6,0,1.1-0.1,1.7-0.4v1.3c-0.6,0.3-1.3,0.3-2,0.3c-1.7,0-3.1-1-3.1-2.8
					c0-1.8,1.3-2.8,2.8-2.8c2,0,2.7,1.4,2.7,2.9v0.3h-3.6V35.1z M81.3,34.1c0-0.6-0.3-1.1-1-1.1c-0.7,0-1,0.6-1,1.1H81.3z"/>
			</g>
			<g>
				<path d="M84.1,32h1.7v1l0,0c0.4-0.7,1.1-1.1,2-1.1c1.4,0,2,1,2,2.1v3.4h-1.8v-2.5c0-1-0.3-1.4-0.8-1.4c-0.7,0-1.1,0.6-1.1,1.7
					v2.2h-1.8C84.1,37.3,84.1,32,84.1,32z"/>
			</g>
			<g>
				<path d="M90.9,33.8h2.8v1.4h-2.8V33.8z"/>
			</g>
			<g>
				<path d="M100.7,37c-0.6,0.1-1.1,0.3-2.1,0.3c-2,0-4.1-1-4.1-3.6c0-2.5,1.7-3.6,4.1-3.6c0.7,0,1.4,0.1,2.1,0.4l-0.1,1.4
					c-0.6-0.3-1.3-0.6-1.8-0.6c-1.4,0-2.2,1-2.2,2.2c0,1.4,1,2.2,2.4,2.2c0.6,0,1.3-0.1,1.8-0.4V37z"/>
			</g>
			<g>
				<path d="M102,29.6h1.8v7.5H102V29.6z"/>
			</g>
			<g>
				<path d="M111.1,37.2h-1.7v-1l0,0c-0.4,0.7-1.1,1.1-2,1.1c-1.4,0-2-1-2-2.1v-3.4h1.8v2.5c0,1,0.3,1.4,0.8,1.4
					c0.7,0,1.1-0.6,1.1-1.7v-2.2h1.8C111.1,31.9,111.1,37.2,111.1,37.2z"/>
			</g>
			<g>
				<path d="M112.4,29.6h1.8v3.1l0,0c0.4-0.6,1.1-0.8,1.8-0.8c1.4,0,2.2,1.4,2.2,2.7c0,1.5-0.8,2.8-2.4,2.8c-0.8,0-1.5-0.4-1.8-1.1
					l0,0v1h-1.7C112.4,37.2,112.4,29.6,112.4,29.6z M115.4,33.3c-0.7,0-1.1,0.6-1.1,1.4s0.6,1.4,1.1,1.4c0.7,0,1.1-0.6,1.1-1.4
					C116.5,33.8,116.1,33.3,115.4,33.3z"/>
			</g>
			<g>
				<path d="M122.9,35.5c0.4,0.3,1.1,0.4,2,0.4c0.6,0,1.1-0.1,1.1-0.7c0-1.3-3.4-0.4-3.4-3.1c0-1.7,1.7-2.2,3.1-2.2
					c0.7,0,1.4,0.1,1.8,0.3l-0.1,1.4c-0.4-0.3-1-0.3-1.5-0.3c-0.4,0-1.3,0-1.3,0.7c0,1.1,3.4,0.4,3.4,2.9c0,1.8-1.5,2.4-3.1,2.4
					c-0.7,0-1.5-0.1-2.1-0.3L122.9,35.5z"/>
			</g>
			<g>
				<path d="M131.6,30.2h2.4l2.8,7.1h-2.1l-0.6-1.5h-2.8l-0.6,1.5h-2L131.6,30.2z M132.7,31.6L132.7,31.6l-1,2.8h1.8L132.7,31.6z"/>
			</g>
			<g>
				<path d="M143.5,37c-0.6,0.1-1.1,0.3-2.1,0.3c-2,0-4.1-1-4.1-3.6c0-2.5,1.7-3.6,4.1-3.6c0.7,0,1.4,0.1,2.1,0.4l-0.1,1.5
					c-0.6-0.3-1.3-0.6-1.8-0.6c-1.4,0-2.2,1-2.2,2.2c0,1.4,1,2.2,2.4,2.2c0.6,0,1.3-0.1,1.8-0.4V37z"/>
			</g>
			<g>
				<path d="M65.2,44c-0.4-0.3-1-0.4-1.4-0.4c-1.7,0-2.7,1.1-2.7,2.8s1.3,2.8,2.7,2.8c0.6,0,1.1-0.1,1.5-0.3v1
					c-0.6,0.3-1.3,0.3-1.7,0.3c-2.2,0-3.8-1.4-3.8-3.6c0-2.2,1.5-3.6,3.8-3.6c0.6,0,1.1,0.1,1.5,0.3L65.2,44z"/>
			</g>
			<g>
				<path d="M66.9,42.3h1v7.5h-1V42.3z"/>
			</g>
			<g>
				<path d="M74.5,49.9h-1V49l0,0c-0.3,0.6-1,1-1.7,1c-1.4,0-2-0.8-2-2.2v-3.1h1v2.7c0,1.3,0.3,1.8,1.1,1.8c1.1,0,1.5-0.8,1.5-2.1
					v-2.4h1C74.5,44.7,74.5,49.9,74.5,49.9z"/>
			</g>
			<g>
				<path d="M76.3,42.3h1v3.2l0,0c0.3-0.4,0.8-0.8,1.7-0.8c1.5,0,2.2,1.3,2.2,2.7s-0.7,2.8-2.2,2.8c-1,0-1.5-0.4-1.8-0.8l0,0V50h-1
					v-7.7H76.3z M78.8,45.4c-1,0-1.5,1-1.5,2c0,0.8,0.4,2,1.5,2c1,0,1.4-1.1,1.4-2C80.2,46.4,79.8,45.4,78.8,45.4z"/>
			</g>
			<g>
				<path d="M88.1,42.9h1.1l2.9,7.1h-1.1l-0.7-1.8h-3.5L86.2,50h-1L88.1,42.9z M88.7,43.7l-1.4,3.5h2.8L88.7,43.7z"/>
			</g>
			<g>
				<path d="M93.6,42.3h1v7.5h-1V42.3z"/>
			</g>
			<g>
				<path d="M96.5,44.7h1v0.7l0,0c0.3-0.4,0.8-0.8,1.8-0.8c1.5,0,2.2,1.3,2.2,2.7s-0.7,2.8-2.2,2.8c-1,0-1.4-0.4-1.7-0.8l0,0V52h-1
					v-7.3H96.5z M99,45.4c-1,0-1.5,1-1.5,2c0,0.8,0.4,2,1.5,2c1,0,1.4-1.1,1.4-2C100.4,46.4,100,45.4,99,45.4z"/>
			</g>
			<g>
				<path d="M104.1,43.6h-1.1v-1.1h1.1V43.6z M103.1,44.7h1v5.2h-1V44.7z"/>
			</g>
			<g>
				<path d="M106,44.7h1v0.8l0,0c0.3-0.6,1-1,1.7-1c1.4,0,2,0.8,2,2.2v3.1h-1v-2.7c0-1.3-0.3-1.8-1.1-1.8c-1.1,0-1.5,0.8-1.5,2.1
					v2.4h-1V44.7z"/>
			</g>
			<g>
				<path d="M118.9,43.9c-0.6-0.1-0.8-0.3-1.4-0.3c-0.6,0-1.3,0.1-1.3,1c0,1.4,3.1,1,3.1,3.4c0,1.5-1.1,2.1-2.7,2.1
					c-0.6,0-1-0.1-1.4-0.3l0.1-1c0.3,0.1,1,0.3,1.5,0.3s1.4-0.3,1.4-1.1c0-1.5-3.1-1.1-3.1-3.4c0-1.3,1-2,2.2-2c0.4,0,1,0.1,1.5,0.3
					L118.9,43.9z"/>
			</g>
			<g>
				<path d="M125.4,49.9h-1V49l0,0c-0.3,0.6-1,1-1.7,1c-1.4,0-2-0.8-2-2.2v-3.1h1v2.7c0,1.3,0.3,1.8,1.1,1.8c1.1,0,1.5-0.8,1.5-2.1
					v-2.4h1V49.9z"/>
			</g>
			<g>
				<path d="M128.5,43.6h-1.1v-1.1h1.1V43.6z M127.5,44.7h1v5.2h-1V44.7z"/>
			</g>
			<g>
				<path d="M130,48.9c0.4,0.3,1,0.4,1.1,0.4c0.4,0,1-0.1,1-0.7c0-1-2.2-0.8-2.2-2.4c0-1.1,0.8-1.5,1.8-1.5c0.4,0,0.8,0.1,1.1,0.1
					l-0.1,0.8c-0.3-0.1-0.8-0.3-1-0.3c-0.4,0-1,0.1-1,0.7c0,1.1,2.2,0.7,2.2,2.4c0,1.1-0.8,1.7-1.8,1.7c-0.6,0-1,0-1.4-0.3L130,48.9
					z"/>
			</g>
			<g>
				<path d="M134.2,48.9c0.4,0.3,1,0.4,1.1,0.4c0.4,0,1-0.1,1-0.7c0-1-2.2-0.8-2.2-2.4c0-1.1,0.8-1.5,1.8-1.5c0.4,0,0.8,0.1,1.1,0.1
					l-0.1,0.8c-0.3-0.1-0.8-0.3-1-0.3c-0.4,0-1,0.1-1,0.7c0,1.1,2.2,0.7,2.2,2.4c0,1.1-0.8,1.7-1.8,1.7c-0.4,0-1,0-1.4-0.3
					L134.2,48.9z"/>
			</g>
			<g>
				<path d="M142.8,49.7c-0.4,0.1-0.8,0.3-1.7,0.3c-1.8,0-2.7-1.1-2.7-2.8c0-1.5,1-2.7,2.4-2.7c1.7,0,2.2,1.3,2.2,2.9h-3.6
					c0,1,0.8,1.7,1.7,1.7c0.7,0,1.4-0.3,1.5-0.6v1.1H142.8z M142.2,46.8c0-0.8-0.4-1.4-1.3-1.4c-1,0-1.3,0.8-1.4,1.4H142.2z"/>
			</g>
			<g>
				<path d="M47.1,56.7c-0.4-0.3-1-0.4-1.4-0.4c-1.7,0-2.7,1.1-2.7,2.8s1.3,2.8,2.7,2.8c0.6,0,1.3-0.1,1.5-0.3v1
					c-0.6,0.3-1.3,0.3-1.7,0.3c-2.2,0-3.8-1.4-3.8-3.6s1.5-3.6,3.8-3.6c0.6,0,1.1,0.1,1.5,0.3L47.1,56.7z"/>
			</g>
			<g>
				<path d="M48.6,55.1h1v7.5h-1V55.1z"/>
			</g>
			<g>
				<path d="M56.2,62.6h-1v-0.8l0,0c-0.3,0.6-1,1-1.7,1c-1.4,0-2-0.8-2-2.2v-3.1h1v2.7c0,1.3,0.3,1.8,1.1,1.8c1.1,0,1.5-0.8,1.5-2.1
					v-2.4h1C56.2,57.4,56.2,62.6,56.2,62.6z"/>
			</g>
			<g>
				<path d="M58.1,55.1h1v3.2l0,0c0.3-0.4,0.8-0.8,1.7-0.8c1.5,0,2.2,1.3,2.2,2.7s-0.7,2.8-2.2,2.8c-1,0-1.5-0.4-1.8-0.8l0,0v0.7h-1
					v-7.7H58.1z M60.5,58.1c-1,0-1.5,1-1.5,2c0,0.8,0.4,2,1.5,2c1,0,1.4-1.1,1.4-2C62,59.1,61.6,58.1,60.5,58.1z"/>
			</g>
			<g>
				<path d="M70,55.5h1.1l2.9,7.1h-1.1l-0.7-1.8h-3.5L68,62.6h-1.1L70,55.5z M70.4,56.5L69,59.9h2.8L70.4,56.5z"/>
			</g>
			<g>
				<path d="M75.3,55.1h1v7.5h-1V55.1z"/>
			</g>
			<g>
				<path d="M78.2,57.4h1v0.7l0,0c0.3-0.4,0.8-0.8,1.8-0.8c1.5,0,2.2,1.3,2.2,2.7s-0.7,2.8-2.2,2.8c-1,0-1.4-0.4-1.7-0.8l0,0v2.8
					h-1.1V57.4z M80.7,58.1c-1,0-1.5,1-1.5,2c0,0.8,0.4,2,1.5,2c1,0,1.4-1.1,1.4-2C82.1,59.1,81.7,58.1,80.7,58.1z"/>
			</g>
			<g>
				<path d="M85.9,56.3h-1.1v-1.1h1.1V56.3z M84.8,57.4h1v5.2h-1V57.4z"/>
			</g>
			<g>
				<path d="M87.7,57.4h1v0.8l0,0c0.3-0.6,1-1,1.7-1c1.4,0,2,0.8,2,2.2v3.1h-1v-2.7c0-1.3-0.3-1.8-1.1-1.8c-1.1,0-1.5,0.8-1.5,2.1
					v2.4h-1V57.4z"/>
			</g>
			<g>
				<path d="M96.5,57.3c1.5,0,2.7,1.1,2.7,2.7c0,1.5-1.1,2.7-2.7,2.7s-2.7-1.3-2.7-2.7C93.9,58.4,95,57.3,96.5,57.3z M96.5,61.9
					c1.1,0,1.7-1,1.7-2c0-1-0.6-2-1.7-2c-1,0-1.7,1-1.7,2C95,60.9,95.4,61.9,96.5,61.9z"/>
			</g>
			<g>
				<path d="M107.1,56.6c-0.6-0.1-0.8-0.3-1.4-0.3c-0.6,0-1.3,0.1-1.3,1c0,1.4,3.1,1,3.1,3.4c0,1.5-1.1,2.1-2.7,2.1
					c-0.6,0-1-0.1-1.4-0.3l0.1-1c0.3,0.1,1,0.3,1.5,0.3s1.4-0.3,1.4-1.1c0-1.5-3.1-1.1-3.1-3.4c0-1.3,1-2,2.2-2c0.4,0,1,0.1,1.5,0.3
					L107.1,56.6z"/>
			</g>
			<g>
				<path d="M111.5,62.6h-1.1l-1.8-5.2h1l1.4,4.2l0,0l1.4-4.2h1L111.5,62.6z"/>
			</g>
			<g>
				<path d="M115.5,56.3h-1v-1.1h1.1v1.1H115.5z M114.5,57.4h1v5.2h-1V57.4z"/>
			</g>
			<g>
				<path d="M117.2,61.8l2.9-3.6h-2.8v-0.8h3.9v0.8l-2.9,3.6h3.1v0.8h-4.2V61.8z"/>
			</g>
			<g>
				<path d="M122.5,61.8l2.9-3.6h-2.8v-0.8h3.9v0.8l-2.9,3.6h3.1v0.8h-4.2V61.8z"/>
			</g>
			<g>
				<path d="M132.1,62.5c-0.4,0.1-0.8,0.3-1.7,0.3c-1.8,0-2.7-1.1-2.7-2.8c0-1.5,1-2.7,2.4-2.7c1.7,0,2.2,1.3,2.2,2.9h-3.6
					c0,1,0.8,1.7,1.7,1.7c0.7,0,1.4-0.3,1.5-0.6v1.1H132.1z M131.6,59.5c0-0.8-0.4-1.4-1.3-1.4c-1,0-1.3,0.8-1.4,1.4H131.6z"/>
			</g>
			<g>
				<path d="M134.1,57.4h0.8v0.8l0,0c0.3-0.6,0.8-1,1.4-1c0.3,0,0.4,0,0.7,0.1v0.8c-0.1-0.1-0.4-0.1-0.6-0.1c-0.8,0-1.4,0.8-1.4,2.1
					v2.4h-1V57.4z"/>
			</g>
			<g>
				<path d="M140.5,57.3c1.5,0,2.7,1.1,2.7,2.7c0,1.5-1.1,2.7-2.7,2.7s-2.7-1.3-2.7-2.7C138,58.4,139,57.3,140.5,57.3z M140.5,61.9
					c1.1,0,1.7-1,1.7-2c0-1-0.6-2-1.7-2c-1,0-1.7,1-1.7,2C139,60.9,139.4,61.9,140.5,61.9z"/>
			</g>
			<g>
				<path d="M59.9,69.4c-0.4-0.3-1-0.4-1.4-0.4c-1.7,0-2.7,1.1-2.7,2.8s1.3,2.8,2.7,2.8c0.6,0,1.3-0.1,1.5-0.3v1
					c-0.6,0.1-1.3,0.1-1.7,0.1c-2.2,0-3.8-1.4-3.8-3.6s1.5-3.6,3.8-3.6c0.6,0,1.1,0.1,1.5,0.3L59.9,69.4z"/>
			</g>
			<g>
				<path d="M61.6,67.6h1v7.5h-1V67.6z"/>
			</g>
			<g>
				<path d="M69.1,75.3h-1v-0.8l0,0c-0.3,0.6-1,1-1.7,1c-1.4,0-2-0.8-2-2.2v-3.1h1v2.7c0,1.3,0.3,1.8,1.1,1.8c1.1,0,1.5-0.8,1.5-2.1
					v-2.4h1C69.1,70.1,69.1,75.3,69.1,75.3z"/>
			</g>
			<g>
				<path d="M71,67.6h1v3.2l0,0c0.3-0.4,0.8-0.8,1.7-0.8c1.5,0,2.2,1.3,2.2,2.7c0,1.4-0.7,2.8-2.2,2.8c-1,0-1.5-0.4-1.8-0.8l0,0v0.7
					h-1v-7.7H71z M73.5,70.8c-1,0-1.5,1-1.5,2c0,0.8,0.4,2,1.5,2c1,0,1.4-1.1,1.4-2C74.9,71.8,74.5,70.8,73.5,70.8z"/>
			</g>
			<g>
				<path d="M82.8,68.2H84l2.9,7.1h-1.1l-0.7-1.8h-3.5l-0.7,1.8h-1.1L82.8,68.2z M83.4,69.2L82,72.7h2.8L83.4,69.2z"/>
			</g>
			<g>
				<path d="M88.3,67.6h1v7.5h-1V67.6z"/>
			</g>
			<g>
				<path d="M91.2,70.1h1v0.7l0,0C92.5,70.4,93,70,94,70c1.5,0,2.2,1.3,2.2,2.7c0,1.4-0.7,2.8-2.2,2.8c-1,0-1.4-0.4-1.7-0.8l0,0v2.8
					h-1v-7.3H91.2z M93.6,70.8c-1,0-1.5,1-1.5,2c0,0.8,0.4,2,1.5,2c1,0,1.4-1.1,1.4-2C95.1,71.8,94.7,70.8,93.6,70.8z"/>
			</g>
			<g>
				<path d="M98.8,69h-1.1v-1.1h1.1V69z M97.8,70.1h1v5.2h-1V70.1z"/>
			</g>
			<g>
				<path d="M100.7,70.1h1V71l0,0c0.3-0.6,1-1,1.7-1c1.4,0,2,0.8,2,2.2v3.1h-1v-2.7c0-1.3-0.3-1.8-1.1-1.8c-1.1,0-1.5,0.8-1.5,2.1
					v2.4h-1V70.1z"/>
			</g>
			<g>
				<path d="M113.6,69.3c-0.6-0.1-0.8-0.3-1.4-0.3s-1.3,0.1-1.3,1c0,1.4,3.1,1,3.1,3.4c0,1.5-1.1,2.1-2.7,2.1c-0.6,0-1-0.1-1.4-0.3
					l0.1-1c0.3,0.1,1,0.3,1.5,0.3s1.4-0.3,1.4-1.1c0-1.5-3.1-1.1-3.1-3.4c0-1.3,1-2,2.2-2c0.4,0,1,0.1,1.5,0.3L113.6,69.3z"/>
			</g>
			<g>
				<path d="M117.9,75.3h-1.1l-1.8-5.2h1l1.4,4.2l0,0l1.4-4.2h1L117.9,75.3z"/>
			</g>
			<g>
				<path d="M122.1,69H121v-1.1h1.1V69z M121,70.1h1v5.2h-1V70.1z"/>
			</g>
			<g>
				<path d="M123.6,74.5l2.9-3.6h-2.8V70h3.9v0.8l-2.9,3.6h3.1v0.8h-4.2V74.5z"/>
			</g>
			<g>
				<path d="M128.9,74.5l2.9-3.6h-2.8V70h3.9v0.8l-2.9,3.6h3.1v0.8h-4.2V74.5z"/>
			</g>
			<g>
				<path d="M138.6,75c-0.3,0.1-0.7,0.4-1.5,0.4c-1.8,0-2.7-1.1-2.7-2.8c0-1.5,1-2.7,2.4-2.7c1.7,0,2.2,1.3,2.2,2.9h-3.6
					c0,1,0.8,1.7,1.7,1.7c0.7,0,1.4-0.3,1.5-0.6C138.6,74.1,138.6,75,138.6,75z M138,72.2c0-0.8-0.4-1.4-1.3-1.4
					c-1,0-1.3,0.8-1.4,1.4H138z"/>
			</g>
			<g>
				<path d="M140.5,70.1h0.8V71l0,0c0.3-0.6,0.8-1,1.4-1c0.3,0,0.4,0,0.7,0.1V71c-0.1-0.1-0.4-0.1-0.6-0.1c-0.8,0-1.4,0.8-1.4,2.1
					v2.4h-1V70.1z"/>
			</g>
		</g>
	</g>
	<g class="st3">
		<path class="st0" d="M44.9,17.8c0.6,0.3,1.4,0.6,2.3,0.6c0.7,0,1.4-0.1,1.4-0.8c0-1.6-4-0.6-4-3.6c0-2,2-2.6,3.7-2.6
			c0.8,0,1.6,0.1,2.2,0.3l-0.1,1.7c-0.6-0.3-1.2-0.4-1.9-0.4c-0.6,0-1.5,0-1.5,0.8c0,1.4,4,0.4,4,3.5c0,2.2-1.8,2.8-3.7,2.8
			c-0.8,0-1.8-0.1-2.5-0.4L44.9,17.8z"/>
		<path class="st0" d="M54,17.4c0.1,0.9,0.8,1.2,1.8,1.2c0.6,0,1.3-0.1,1.9-0.5v1.5c-0.7,0.3-1.5,0.4-2.3,0.4
			c-2.1,0-3.6-1.2-3.6-3.3s1.4-3.3,3.4-3.3c2.3,0,3.2,1.6,3.2,3.5v0.4H54z M56.4,16.2c0-0.7-0.3-1.3-1.2-1.3c-0.8,0-1.2,0.6-1.2,1.3
			H56.4z"/>
		<path class="st0" d="M59.5,10.9h2.2v5.4h0l1.8-2.6h2.4l-2.2,2.9l2.4,3.4h-2.6l-1.7-3.1h0v3.1h-2.2V10.9z"/>
		<path class="st0" d="M66.3,13.6h1.3v-1.4l2.1-0.7v2.1h1.5v1.5h-1.5v2.3c0,0.8,0.2,1.1,0.9,1.1c0.2,0,0.4,0,0.7-0.1l0.1,1.4
			c-0.4,0-0.8,0.1-1.4,0.1c-1.9,0-2.4-0.9-2.4-2.3v-2.6h-1.2V13.6z"/>
		<path class="st0" d="M74.6,12.6h-2.2V11h2.2V12.6z M72.4,13.6h2.2v6.3h-2.2V13.6z"/>
		<path class="st0" d="M75.9,16.8c0-2.1,1.6-3.3,3.6-3.3s3.6,1.2,3.6,3.3c0,2.1-1.6,3.3-3.6,3.3S75.9,18.9,75.9,16.8z M81,16.8
			c0-0.9-0.4-1.8-1.4-1.8c-1,0-1.4,0.8-1.4,1.8c0,0.9,0.4,1.8,1.4,1.8C80.6,18.5,81,17.7,81,16.8z"/>
		<path class="st0" d="M84.2,13.6h2v1.2h0c0.4-0.9,1.3-1.3,2.3-1.3c1.7,0,2.4,1.2,2.4,2.5v3.9h-2.2v-3c0-1.2-0.4-1.6-1-1.6
			c-0.9,0-1.3,0.6-1.3,2v2.6h-2.2V13.6z"/>
		<path class="st0" d="M96,11.5h3.5l1.8,5.6h0l1.9-5.6h3.4v8.4h-2.2l0-6.5h0l-2.1,6.5h-2.1l-2-6.5h0l0,6.5H96V11.5z"/>
		<path class="st0" d="M108,20.8c0.3,0.1,0.6,0.1,0.9,0.1c0.5,0,0.9-0.3,1.1-0.9l-2.5-6.4h2.3l1.3,4.1h0l1.3-4.1h2.2l-2.3,5.8
			c-0.6,1.6-1.1,3.1-3.1,3.1c-0.5,0-0.9,0-1.3-0.1L108,20.8z"/>
		<path class="st0" d="M114.8,13.6h1.3v-1.4l2.1-0.7v2.1h1.5v1.5h-1.5v2.3c0,0.8,0.2,1.1,0.9,1.1c0.2,0,0.4,0,0.7-0.1l0.1,1.4
			c-0.4,0-0.8,0.1-1.4,0.1c-1.9,0-2.4-0.9-2.4-2.3v-2.6h-1.2V13.6z"/>
		<path class="st0" d="M120.7,10.9h2.2v3.7h0c0.5-0.7,1.2-1.1,2.1-1.1c1.7,0,2.4,1.2,2.4,2.5v3.9h-2.2v-3c0-1.2-0.4-1.6-1-1.6
			c-0.9,0-1.3,0.6-1.3,2v2.6h-2.2V10.9z"/>
		<path class="st0" d="M130.6,17.4c0.1,0.9,0.8,1.2,1.8,1.2c0.6,0,1.3-0.1,1.9-0.5v1.5c-0.7,0.3-1.5,0.4-2.3,0.4
			c-2.1,0-3.6-1.2-3.6-3.3s1.4-3.3,3.4-3.3c2.3,0,3.2,1.6,3.2,3.5v0.4H130.6z M133,16.2c0-0.7-0.3-1.3-1.2-1.3
			c-0.8,0-1.2,0.6-1.2,1.3H133z"/>
		<path class="st0" d="M136.1,13.6h2v1.2h0c0.4-0.9,1.3-1.3,2.3-1.3c1.7,0,2.4,1.2,2.4,2.5v3.9h-2.2v-3c0-1.2-0.4-1.6-1-1.6
			c-0.9,0-1.3,0.6-1.3,2v2.6h-2.2V13.6z"/>
	</g>
</g>
</svg>
