<?xml version="1.0" encoding="utf-8"?>
<!-- Generator: Adobe Illustrator 23.0.3, SVG Export Plug-In . SVG Version: 6.00 Build 0)  -->
<svg version="1.0" id="Ebene_1" xmlns="http://www.w3.org/2000/svg" xmlns:xlink="http://www.w3.org/1999/xlink" x="0px" y="0px"
	 viewBox="0 0 799.4 418.2" style="enable-background:new 0 0 799.4 418.2;" xml:space="preserve">
<g>
	<path d="M114.9,233.7c-2,3.7-4.7,6.6-8.2,8.6c-3.5,2-7.5,3-12.2,3c-6.7,0-11.9-2.3-15.7-6.8c-3.8-4.5-5.7-11.6-5.7-21.1v-30.8
		l-7.9-0.8v-5.2h7.9h7v36.9c0,7.7,1.3,13.3,4,16.6c2.6,3.4,6.4,5,11.2,5c5.3,0,9.5-1.2,12.7-3.5c3.1-2.3,5.4-5.6,6.7-9.7v-39.3
		l-9-0.8v-5.2h9h7v57.5l8.5,0.8v5.2h-14.6L114.9,233.7z"/>
	<path d="M138.1,157.9v-5.2h16.5v85.5l9.6,0.8v5.2h-26.1v-5.2l9.6-0.8v-79.5L138.1,157.9z"/>
	<path d="M188.5,180.7l0.9,10.5v0.8c1.8-3.9,4.2-7,7.4-9.2c3.1-2.2,6.8-3.3,11-3.3c0.9,0,1.8,0.1,2.6,0.2c0.8,0.1,1.5,0.3,2.1,0.4
		l-0.9,6.6l-5.2-0.4c-4.4,0-8,1.2-10.9,3.7c-2.8,2.5-4.9,5.9-6.1,10.2v37.9l9.6,0.8v5.2h-26.1v-5.2l9.6-0.8v-51.5l-9.6-0.8v-5.2h9.6
		H188.5z"/>
	<path d="M220.3,238.9l9.6-0.8v-51.5l-9.6-0.8v-5.2h16.5v57.5l9.6,0.8v5.2h-26.1V238.9z M236.9,162.5h-7v-9.8h7V162.5z"/>
	<path d="M279.3,239.4c4.6,0,8.7-1.3,12.3-4c3.6-2.7,5.3-6.3,5.3-11.1h6.2l0.1,0.4c0.2,5.9-2.1,10.8-7,14.7
		c-4.9,3.9-10.5,5.9-17,5.9c-8.6,0-15.3-3-20-8.9c-4.7-5.9-7.1-13.5-7.1-22.8v-2.5c0-9.2,2.4-16.8,7.1-22.7
		c4.7-5.9,11.4-8.9,19.9-8.9c4.9,0,9.4,0.9,13.4,2.8c4.1,1.8,7.4,4.3,9.9,7.5l0.3,13.8h-6l-1.1-11.2c-1.9-2.1-4.2-3.8-7-5
		c-2.8-1.2-6-1.8-9.5-1.8c-6.8,0-11.8,2.4-15.1,7.3c-3.3,4.9-4.9,11-4.9,18.4v2.5c0,7.5,1.6,13.7,4.9,18.5
		C267.3,237,272.4,239.4,279.3,239.4z"/>
	<path d="M309.7,157.9v-5.2h16.5v38.8c2.1-3.8,4.9-6.7,8.4-8.8s7.6-3.2,12.3-3.2c6.7,0,11.8,2.1,15.4,6.2c3.6,4.1,5.4,10.6,5.4,19.3
		v33.2l9.6,0.8v5.2h-26.1v-5.2l9.6-0.8v-33.3c0-6.9-1.4-11.8-4.1-14.8c-2.7-3-6.5-4.5-11.2-4.5c-4.8,0-8.8,1.3-12,3.8
		s-5.6,5.9-7.1,10v38.7l9.6,0.8v5.2h-26.1v-5.2l9.6-0.8v-79.5L309.7,157.9z"/>
	<path d="M396.3,244.1h-8v-9.6h8V244.1z"/>
	<path d="M451.9,234.9c-2.1,3.3-4.8,5.9-8.1,7.7c-3.3,1.8-7.2,2.7-11.7,2.7c-7.6,0-13.5-2.8-17.8-8.5c-4.3-5.7-6.4-13.2-6.4-22.7
		v-1.2c0-10.1,2.1-18.2,6.4-24.3c4.3-6.1,10.2-9.1,17.9-9.1c4.4,0,8.2,0.9,11.5,2.8c3.2,1.9,5.9,4.5,8.1,7.9v-31.6l-9.6-0.8v-5.2
		h9.6h7v85.5l9.6,0.8v5.2h-15.8L451.9,234.9z M414.9,214.1c0,7.7,1.5,13.8,4.6,18.3c3.1,4.5,7.7,6.8,13.9,6.8c4.5,0,8.3-1,11.3-3
		c3-2,5.4-4.8,7.1-8.4v-30c-1.6-3.6-3.8-6.5-6.8-8.8c-3-2.3-6.8-3.4-11.5-3.4c-6.2,0-10.8,2.5-13.9,7.6c-3.1,5.1-4.7,11.6-4.7,19.7
		V214.1z"/>
	<path d="M476.9,238.9l9.6-0.8v-51.5l-9.6-0.8v-5.2h16.5v57.5l9.6,0.8v5.2h-26.1V238.9z M493.4,162.5h-7v-9.8h7V162.5z"/>
	<path d="M508.9,212.9c0-10.1,2.2-18.2,6.5-24.3c4.3-6.1,10.3-9.1,18-9.1c4.5,0,8.4,1,11.7,3c3.3,2,6,4.8,8.2,8.3l0.8-10.1h5.9v62.6
		c0,8.2-2.2,14.6-6.6,19.3c-4.4,4.7-10.6,7.1-18.5,7.1c-3,0-6.3-0.4-9.8-1.1s-6.5-1.8-9.1-3l1.9-5.9c2.5,1.2,5.2,2.1,8,2.8
		c2.8,0.7,5.7,1,8.8,1c6,0,10.5-1.8,13.6-5.3s4.6-8.5,4.6-14.8v-8c-2.1,3.2-4.9,5.7-8.1,7.5c-3.3,1.7-7.1,2.6-11.5,2.6
		c-7.6,0-13.6-2.8-17.9-8.5c-4.3-5.7-6.4-13.2-6.4-22.7V212.9z M516,214.1c0,7.6,1.6,13.7,4.7,18.3c3.1,4.6,7.7,6.8,13.9,6.8
		c4.6,0,8.4-1,11.4-3.1c3-2.1,5.4-4.9,7-8.6v-29.4c-1.6-3.7-3.8-6.7-6.7-9.1c-2.9-2.3-6.8-3.5-11.5-3.5c-6.2,0-10.8,2.5-14,7.6
		c-3.1,5.1-4.7,11.6-4.7,19.7V214.1z"/>
	<path d="M570.9,238.9l9.6-0.8v-51.5l-9.6-0.8v-5.2h16.5v57.5l9.6,0.8v5.2h-26.1V238.9z M587.4,162.5h-7v-9.8h7V162.5z"/>
	<path d="M618.1,164.5v16.2h13.9v5.7h-13.9v41.3c0,4.1,0.8,7.1,2.3,8.8c1.5,1.7,3.5,2.6,6,2.6c1.1,0,2.2,0,3.3-0.1
		c1.1-0.1,2.3-0.3,3.7-0.5l1.1,5.2c-1.2,0.5-2.6,0.9-4.3,1.2c-1.7,0.3-3.4,0.4-5,0.4c-4.5,0-7.9-1.4-10.4-4.2
		c-2.5-2.8-3.7-7.3-3.7-13.4v-41.3h-10.9v-5.7h10.9v-16.2H618.1z"/>
	<path d="M685,244.1c-0.5-2.1-0.8-4-1-5.6c-0.2-1.6-0.3-3.1-0.3-4.7c-2.3,3.3-5.5,6.1-9.4,8.3c-3.9,2.2-8.3,3.3-13.2,3.3
		c-6.2,0-11-1.6-14.4-4.8c-3.4-3.2-5.1-7.5-5.1-13c0-5.9,2.5-10.5,7.6-13.9c5-3.4,11.9-5.2,20.5-5.2h14V200c0-4.5-1.5-8.1-4.4-10.7
		s-7-3.9-12.2-3.9c-3.5,0-6.7,0.5-9.6,1.4c-2.9,1-5.3,2.3-7.3,3.9l-0.6,8.5h-5.8l0.1-12.2c2.9-2.3,6.4-4.1,10.5-5.5s8.4-2.1,13-2.1
		c7,0,12.6,1.8,16.9,5.3c4.3,3.6,6.4,8.7,6.4,15.3v31.2c0,1.3,0,2.5,0.1,3.7c0.1,1.2,0.2,2.4,0.4,3.5l6.3,0.4v5.2H685z M661.9,239.1
		c5.1,0,9.6-1.2,13.4-3.5s6.7-5.4,8.4-9.1v-12.7h-14.1c-6.4,0-11.5,1.3-15.3,4s-5.7,6-5.7,10c0,3.4,1.2,6.1,3.5,8.2
		C654.5,238.1,657.8,239.1,661.9,239.1z"/>
	<path d="M705.3,157.9v-5.2h16.5v85.5l9.6,0.8v5.2h-26.1v-5.2l9.6-0.8v-79.5L705.3,157.9z"/>
</g>
</svg>
