<?xml version="1.0" standalone="no"?>
<!DOCTYPE svg PUBLIC "-//W3C//DTD SVG 20010904//EN"
 "http://www.w3.org/TR/2001/REC-SVG-20010904/DTD/svg10.dtd">
<svg version="1.0" xmlns="http://www.w3.org/2000/svg"
 width="1000.000000pt" height="1000.000000pt" viewBox="0 0 1000.000000 1000.000000"
 preserveAspectRatio="xMidYMid meet">
<metadata>
Created by potrace 1.11, written by Peter Selinger 2001-2013
</metadata>
<g transform="translate(0.000000,1000.000000) scale(0.100000,-0.100000)"
fill="#000000" stroke="none">
<path d="M4719 9845 c-3 -2 -49 -6 -104 -9 -55 -4 -116 -8 -135 -10 -99 -13
-138 -18 -165 -21 -31 -3 -214 -34 -250 -41 -11 -3 -32 -6 -47 -9 -15 -2 -35
-6 -45 -9 -10 -3 -31 -8 -48 -11 -25 -4 -90 -21 -345 -90 -8 -2 -62 -20 -120
-39 -58 -20 -109 -38 -115 -39 -32 -10 -64 -21 -90 -32 -210 -86 -349 -148
-440 -194 -60 -30 -113 -55 -117 -53 -5 1 -8 -2 -8 -7 0 -5 -8 -11 -17 -15
-10 -3 -45 -22 -78 -41 -33 -20 -68 -38 -77 -42 -10 -3 -18 -9 -18 -14 0 -5
-4 -9 -10 -9 -10 0 -99 -55 -224 -139 -38 -25 -76 -51 -85 -56 -10 -6 -25 -17
-34 -25 -33 -30 -47 -41 -47 -35 0 3 -10 -4 -22 -16 -13 -11 -40 -32 -60 -45
-21 -13 -38 -29 -38 -34 0 -6 -4 -10 -10 -10 -9 0 -35 -20 -74 -55 -6 -6 -33
-28 -60 -50 -143 -115 -388 -361 -554 -554 -12 -14 -28 -33 -35 -41 -8 -8 -29
-35 -48 -60 -19 -25 -37 -47 -40 -50 -3 -3 -25 -32 -50 -65 -42 -58 -49 -67
-76 -99 -7 -8 -13 -20 -13 -26 0 -5 -4 -10 -10 -10 -5 0 -10 -7 -10 -15 0 -8
-4 -15 -10 -15 -5 0 -10 -5 -10 -10 0 -6 -9 -20 -20 -32 -11 -12 -20 -28 -20
-35 0 -7 -4 -13 -10 -13 -5 0 -10 -7 -10 -15 0 -9 -6 -18 -14 -21 -8 -3 -17
-13 -20 -22 -3 -9 -17 -35 -31 -57 -13 -22 -28 -47 -32 -55 -3 -8 -9 -17 -13
-20 -9 -8 -110 -192 -169 -310 -81 -162 -232 -520 -246 -583 -1 -7 -5 -19 -8
-27 -15 -36 -90 -285 -103 -340 -1 -8 -12 -51 -22 -95 -11 -44 -23 -98 -27
-120 -5 -22 -9 -44 -10 -50 -7 -30 -27 -134 -30 -160 -5 -32 -15 -99 -20 -127
-2 -9 -7 -48 -10 -85 -4 -37 -8 -79 -10 -92 -27 -163 -26 -856 0 -993 3 -11 7
-46 10 -77 4 -31 8 -67 10 -81 3 -14 7 -43 10 -65 10 -65 14 -85 35 -195 12
-58 22 -114 24 -125 2 -11 9 -40 16 -65 7 -25 13 -52 15 -60 2 -8 10 -42 19
-75 9 -33 19 -67 21 -75 27 -104 114 -362 127 -377 6 -7 8 -13 5 -13 -5 0 48
-135 90 -229 25 -59 181 -374 200 -406 73 -123 93 -158 93 -166 0 -5 4 -9 9
-9 5 0 11 -8 14 -17 6 -18 38 -74 47 -83 3 -3 35 -48 70 -100 68 -101 206
-288 225 -305 6 -5 17 -19 25 -31 16 -22 98 -118 170 -198 104 -116 338 -342
445 -431 27 -22 53 -45 59 -50 6 -6 29 -24 51 -40 22 -17 46 -35 53 -42 7 -7
61 -47 120 -90 59 -42 110 -82 114 -88 4 -5 8 -6 8 -2 0 5 7 2 15 -5 33 -30
50 -43 50 -39 0 4 125 -74 177 -110 15 -10 30 -19 33 -19 3 0 23 -11 45 -25
111 -70 478 -246 645 -310 39 -15 79 -31 90 -35 35 -15 196 -67 305 -100 102
-31 120 -35 158 -44 10 -2 36 -9 58 -15 21 -6 84 -20 139 -31 55 -12 118 -25
140 -30 22 -5 63 -12 90 -15 28 -3 61 -9 74 -12 13 -3 36 -7 50 -8 14 -1 46
-4 71 -8 169 -24 295 -31 590 -32 239 0 438 8 501 20 13 3 51 7 84 10 33 3 74
8 90 11 17 3 41 7 55 9 77 10 119 17 150 25 19 5 53 11 75 15 22 3 69 13 105
21 36 9 73 17 83 19 10 2 27 7 37 10 18 6 39 11 89 21 13 3 31 9 40 13 9 5 18
9 21 9 24 0 318 95 420 137 30 12 64 26 75 30 11 5 22 9 25 10 3 1 25 10 50
21 25 10 48 18 53 16 4 -1 7 2 7 8 0 5 5 10 12 10 16 0 315 148 412 204 44 25
83 46 88 46 4 0 8 4 8 9 0 5 8 11 18 14 16 6 50 26 118 71 16 11 67 45 114 75
85 56 110 74 136 99 8 7 14 10 14 6 0 -4 8 2 18 13 9 11 25 22 35 26 9 3 17
11 17 17 0 5 4 10 10 10 9 0 42 25 76 57 7 7 15 13 18 13 3 0 14 8 24 17 10
10 34 31 53 46 150 122 435 406 564 563 22 27 48 56 58 66 9 10 17 23 17 28 0
6 3 10 8 10 4 0 28 28 52 62 25 34 50 66 55 72 6 6 33 43 60 81 27 39 54 73
59 77 7 5 7 8 1 8 -6 0 -6 3 0 8 14 9 155 228 155 239 0 5 5 14 12 21 19 19
71 115 166 307 95 191 142 291 142 299 0 2 5 17 11 33 6 15 9 28 8 28 -1 0 4
11 11 25 8 14 15 27 16 30 0 3 4 12 7 20 24 58 55 150 50 150 -3 0 -1 6 5 12
5 7 20 47 31 88 12 41 26 84 30 95 10 22 50 174 58 214 2 14 6 28 8 31 2 4 7
22 10 41 3 19 11 52 16 74 6 22 12 49 14 60 2 11 6 32 9 48 10 52 25 142 31
182 3 23 7 50 9 60 2 11 7 47 10 80 8 62 10 90 23 235 16 172 8 686 -12 855
-11 93 -17 141 -20 155 -1 8 -5 36 -9 61 -4 25 -9 57 -11 70 -2 13 -6 40 -9
59 -3 19 -10 60 -16 90 -6 30 -13 66 -16 80 -3 14 -7 33 -10 42 -3 9 -7 25 -9
35 -10 51 -45 185 -61 238 -10 33 -19 62 -19 65 -13 52 -108 324 -146 415 -6
17 -13 35 -15 40 -8 32 -222 475 -234 485 -3 3 -12 19 -20 35 -29 58 -135 232
-160 262 -5 7 -10 15 -10 19 0 6 -108 164 -120 174 -3 3 -19 25 -35 50 -17 24
-37 52 -45 61 -8 10 -19 24 -25 31 -19 26 -89 113 -95 118 -3 3 -25 30 -50 60
-78 95 -420 449 -420 434 0 -2 -12 9 -27 24 -62 61 -308 262 -322 262 -6 0
-14 6 -18 13 -9 14 -111 88 -208 151 -33 21 -63 44 -67 50 -4 6 -8 7 -8 1 0
-7 -3 -7 -8 0 -9 13 -42 34 -64 41 -10 4 -18 10 -18 14 0 4 -8 10 -17 14 -10
3 -25 10 -33 15 -88 59 -429 233 -560 286 -36 15 -78 33 -95 40 -16 7 -57 23
-90 35 -33 12 -69 26 -80 31 -24 10 -263 89 -285 94 -8 2 -68 17 -134 35 -65
17 -130 34 -143 36 -14 3 -55 12 -91 20 -37 9 -78 17 -92 19 -14 2 -50 8 -80
14 -61 11 -115 19 -175 27 -22 3 -56 7 -75 10 -19 3 -57 7 -85 9 -27 3 -77 8
-110 11 -72 7 -630 15 -636 9z"/>
</g>
</svg>
